<?xml version="1.0" encoding="UTF-8" standalone="no"?>
<!-- Generator: Adobe Illustrator 23.0.6, SVG Export Plug-In . SVG Version: 6.00 Build 0)  -->

<svg
   version="1.1"
   id="Capa_1"
   x="0px"
   y="0px"
   viewBox="0 0 255.1 255.1"
   style="enable-background:new 0 0 255.1 255.1;"
   xml:space="preserve"
   sodipodi:docname="bug_icon.svg"
   inkscape:version="1.2.2 (732a01da63, 2022-12-09)"
   xmlns:inkscape="http://www.inkscape.org/namespaces/inkscape"
   xmlns:sodipodi="http://sodipodi.sourceforge.net/DTD/sodipodi-0.dtd"
   xmlns="http://www.w3.org/2000/svg"
   xmlns:svg="http://www.w3.org/2000/svg"><defs
   id="defs7803" /><sodipodi:namedview
   id="namedview7801"
   pagecolor="#bababa"
   bordercolor="#999999"
   borderopacity="1"
   inkscape:showpageshadow="0"
   inkscape:pageopacity="0"
   inkscape:pagecheckerboard="0"
   inkscape:deskcolor="#d1d1d1"
   showgrid="false"
   inkscape:zoom="2.8467215"
   inkscape:cx="157.90094"
   inkscape:cy="80.794698"
   inkscape:window-width="2560"
   inkscape:window-height="1417"
   inkscape:window-x="-8"
   inkscape:window-y="-8"
   inkscape:window-maximized="1"
   inkscape:current-layer="Capa_1" />
<style
   type="text/css"
   id="style7794">
	.st0{fill:#B567CE;}
	.st1{fill:#FEFEFE;}
</style>


<path
   style="fill:#000000"
   id="path5211"
   d="" /><path
   style="fill:#ffffff;stroke-width:0.346096;fill-opacity:1"
   d="m 120.16547,249.1471 -1.90353,-0.13798 -4.84536,-0.53094 -4.84536,-0.53094 -5.01841,-1.00549 -5.0184,-1.00549 -4.326216,-1.23451 -4.326216,-1.2345 -3.460964,-1.24664 -3.460975,-1.24663 -3.634012,-1.5358 -3.634023,-1.5358 -4.527773,-2.36542 -4.527743,-2.36542 -3.086389,-1.9106 -3.086359,-1.91062 -3.270687,-2.31652 -3.270647,-2.31653 -3.297678,-2.64646 -3.297649,-2.64647 -4.700548,-4.56661 -4.700548,-4.56662 -3.267197,-3.84828 -3.267187,-3.8483 -2.846651,-3.97796 -2.846681,-3.97797 -1.981329,-3.18149 -1.981308,-3.18149 -2.978433,-5.88365 -2.978442,-5.88365 -1.4886,-3.80706 -1.488599,-3.80707 -1.186561,-3.63402 -1.186551,-3.63402 -1.0030934,-3.98011 -1.0031329,-3.98012 -0.693852,-3.63401 -0.6938925,-3.63402 -0.6099937,-5.01841 -0.6099634,-5.0184 v -8.82547 -8.82548 l 0.6099634,-5.0184 0.6099937,-5.01841 0.6938925,-3.63402 0.693852,-3.63401 1.0031329,-3.980117 1.0030934,-3.980114 1.185448,-3.634018 1.185418,-3.634017 1.279171,-3.287922 1.279141,-3.287921 2.710114,-5.53755 2.710144,-5.537551 2.069144,-3.46097 2.069172,-3.460969 2.597282,-3.702095 2.597251,-3.7021 2.717003,-3.382242 2.717035,-3.382244 4.288551,-4.429774 4.28852,-4.42977 3.325612,-2.887006 3.325581,-2.887009 3.717699,-2.790638 3.717739,-2.790642 4.242499,-2.694915 4.24252,-2.694918 5.537553,-2.811619 5.537553,-2.811622 4.499254,-1.760675 4.499263,-1.760675 3.287917,-1.058956 3.287926,-1.058957 3.980109,-1.0352661 3.980117,-1.035269 5.01841,-0.8627888 5.0184,-0.8627887 3.80707,-0.429021 3.80707,-0.4290261 h 8.47937 8.47937 l 3.80708,0.4290261 3.80706,0.429021 5.01841,0.8616435 5.0184,0.8616466 4.49926,1.1835269 4.49926,1.1835306 4.49925,1.545786 4.49927,1.545787 3.80707,1.622606 3.80706,1.622603 3.63402,1.858112 3.63402,1.858111 3.89071,2.347267 3.89076,2.347267 3.03118,2.144442 3.03122,2.14444 3.78603,3.033689 3.78606,3.033691 4.35884,4.223127 4.35889,4.223127 3.25781,3.840371 3.25781,3.840372 3.03302,4.163474 3.03299,4.163473 2.23052,3.706813 2.23049,3.706809 1.91925,3.634018 1.91924,3.634017 1.79026,4.153164 1.79026,4.153163 2.00161,6.056696 2.00166,6.056697 1.05462,4.672309 1.05466,4.6723 0.71358,4.84536 0.71362,4.84536 0.40328,6.48932 0.40331,6.48932 -0.40331,6.48931 -0.40328,6.48932 -0.71362,4.84536 -0.71358,4.84536 -1.05466,4.6723 -1.05462,4.67231 -2.00297,6.0567 -2.00297,6.0567 -1.62745,3.78485 -1.62749,3.78485 -1.55217,3.09053 -1.55214,3.09053 -2.70873,4.54957 -2.70876,4.54956 -3.08331,4.23251 -3.08331,4.23253 -3.22901,3.80641 -3.22899,3.8064 -4.19361,4.07733 -4.1936,4.07731 -3.81924,3.10827 -3.81925,3.10827 -3.19205,2.24964 -3.19209,2.24962 -3.89076,2.34727 -3.89071,2.34726 -3.63402,1.85812 -3.63402,1.85812 -3.80706,1.62379 -3.80707,1.62378 -4.95711,1.69127 -4.95708,1.69128 -4.90668,1.21456 -4.90666,1.21454 -3.11487,0.53338 -3.11487,0.53338 -4.32621,0.52197 -4.32622,0.52198 -7.44108,0.12162 -7.44108,0.12163 z m -19.63357,-49.79638 2.8046,-3.46097 2.73548,-4.15316 2.73548,-4.15317 2.53613,-5.19145 2.53609,-5.19145 1.3782,-3.80707 1.37823,-3.80707 1.20784,-4.84535 1.20785,-4.84536 0.63955,-4.15317 0.63955,-4.15316 0.004,-8.47937 0.004,-8.47937 -0.46654,-3.11488 -0.4665,-3.11487 -0.85324,-4.15317 -0.85323,-4.15315 -1.71969,-5.19146 -1.71971,-5.19146 -0.24847,-0.35765 -0.24846,-0.35765 -3.28793,-0.96516 -3.28791,-0.96516 -3.14918,-1.33848 -3.14913,-1.33848 -3.034127,-1.74592 -3.034166,-1.74592 -2.795116,-1.995581 -2.795106,-1.995581 -3.673549,-3.634017 -3.673539,-3.634018 -2.057164,-2.774043 -2.057165,-2.774044 -0.541371,-0.829843 -0.541361,-0.829843 -3.154951,3.176041 -3.15492,3.176041 -2.159122,2.677476 -2.159162,2.677475 -2.415371,3.634018 -2.415341,3.634019 -2.346991,4.84536 -2.34695,4.84535 -1.376667,4.15317 -1.376677,4.15315 -0.74822,3.46098 -0.74823,3.46096 -0.495542,3.96697 -0.495542,3.96696 v 5.27341 5.2734 l 0.532266,4.06049 0.532297,4.06048 0.694924,3.13875 0.694925,3.13876 1.540589,4.62382 1.54058,4.62382 2.057781,4.20165 2.057832,4.20164 2.722427,4.15317 2.722436,4.15317 2.618881,3.11487 2.61884,3.11488 2.912481,2.79365 2.912441,2.79367 2.602127,2.06781 2.602127,2.06782 2.447674,1.62721 2.447694,1.62721 2.721465,1.55112 2.721506,1.55112 2.366881,-2.32922 2.366921,-2.3292 2.804595,-3.46097 z m 69.37233,3.23048 3.53483,-2.36374 3.04101,-2.55258 3.04102,-2.55259 2.63958,-2.76421 2.63958,-2.7642 2.15074,-2.70652 2.15079,-2.70651 1.6469,-2.44688 1.6469,-2.44687 1.61642,-2.85545 1.61637,-2.85546 1.37941,-3.13458 1.3794,-3.1346 1.18171,-3.395 1.18175,-3.39501 0.92508,-4.11273 0.92505,-4.11273 0.47623,-3.98012 0.47623,-3.98011 0.0107,-4.77247 0.0107,-4.77248 -0.3661,-3.36081 -0.36607,-3.36079 -0.69372,-3.46098 -0.69372,-3.46096 -0.86458,-3.01492 -0.86461,-3.01491 -1.37191,-3.52028 -1.37189,-3.52029 -1.71252,-3.32857 -1.71256,-3.32856 -2.12711,-3.287924 -2.12711,-3.28792 -2.3575,-2.941824 -2.35752,-2.941824 -3.23129,-3.200575 -3.23127,-3.200577 -2.0636,2.854479 -2.06361,2.854479 -2.32338,2.637847 -2.32342,2.637847 -3.22144,2.70364 -3.22146,2.70364 -2.84253,1.853502 -2.84249,1.85349 -4.25249,2.04757 -4.25247,2.04759 -3.89067,1.14034 -3.89069,1.14035 -1.06885,2.76877 -1.06886,2.76878 -1.20019,4.32621 -1.20023,4.32622 -0.87881,5.0184 -0.87884,5.0184 -0.19019,7.10613 -0.19017,7.1061 0.41403,4.14204 0.41404,4.14203 1.02594,5.15168 1.02592,5.15168 1.74528,5.23123 1.74526,5.23123 2.2093,4.59849 2.20935,4.59849 2.00362,3.36174 2.00366,3.36174 2.99533,4.01972 2.99537,4.01971 3.37074,3.51184 3.37075,3.51183 2.28991,-1.27347 2.28995,-1.27347 3.53483,-2.36374 z m -32.56142,-110.48241 3.50655,-0.87285 3.16557,-1.364757 3.16558,-1.364753 2.96457,-1.851899 2.96459,-1.851895 3.08684,-2.892028 3.08684,-2.892031 2.24516,-2.991502 2.24517,-2.991504 V 72.64264 72.259704 l -3.54749,-1.668993 -3.5475,-1.668998 -5.22558,-1.765499 -5.22558,-1.765503 8.76287,-10.66141 8.76286,-10.661408 0.21544,-1.148517 0.21549,-1.148515 -0.58117,-1.224719 -0.58116,-1.22472 -0.89529,-0.586606 -0.89529,-0.58661 h -1.2591 -1.2591 l -0.75147,0.402175 -0.75145,0.402172 -10.24358,12.45029 -10.24356,12.450291 -0.92422,-0.256461 -0.92421,-0.256461 h -7.44109 -7.44108 l -0.93612,0.259445 -0.93613,0.259444 L 107.8629,51.392114 97.605584,38.925131 96.879753,38.536668 96.153912,38.148206 h -1.25913 -1.259099 l -0.942766,0.617738 -0.942807,0.617734 -0.50143,0.969708 -0.50145,0.969709 v 0.968954 0.968953 l 0.655398,1.038291 0.655438,1.038291 8.281204,10.025486 8.28119,10.025488 -4.87128,1.608022 -4.871274,1.608023 -3.89359,1.828481 -3.89359,1.828482 v 0.3431 0.343096 l 1.969259,2.735049 1.969219,2.735051 2.972666,2.865641 2.97266,2.865641 2.58568,1.744377 2.58573,1.744381 2.14747,1.083657 2.14745,1.083657 2.2006,0.828293 2.20055,0.828293 3.26612,0.727146 3.26607,0.727143 1.0383,0.149563 1.03829,0.149559 5.19145,-0.121785 5.19146,-0.121788 3.50652,-0.87285 z"
   id="path6692" /></svg>
