<?xml version="1.0" encoding="UTF-8" standalone="no"?>
<!-- Generator: Adobe Illustrator 23.0.6, SVG Export Plug-In . SVG Version: 6.00 Build 0)  -->

<svg
   version="1.1"
   id="Capa_1"
   x="0px"
   y="0px"
   viewBox="0 0 255.1 255.1"
   style="enable-background:new 0 0 255.1 255.1;"
   xml:space="preserve"
   sodipodi:docname="dragon_icon.svg"
   inkscape:version="1.2.2 (732a01da63, 2022-12-09)"
   xmlns:inkscape="http://www.inkscape.org/namespaces/inkscape"
   xmlns:sodipodi="http://sodipodi.sourceforge.net/DTD/sodipodi-0.dtd"
   xmlns="http://www.w3.org/2000/svg"
   xmlns:svg="http://www.w3.org/2000/svg"><defs
   id="defs7803" /><sodipodi:namedview
   id="namedview7801"
   pagecolor="#bababa"
   bordercolor="#999999"
   borderopacity="1"
   inkscape:showpageshadow="0"
   inkscape:pageopacity="0"
   inkscape:pagecheckerboard="0"
   inkscape:deskcolor="#d1d1d1"
   showgrid="false"
   inkscape:zoom="0.17792009"
   inkscape:cx="-486.17331"
   inkscape:cy="1703.0117"
   inkscape:window-width="2560"
   inkscape:window-height="1417"
   inkscape:window-x="-8"
   inkscape:window-y="-8"
   inkscape:window-maximized="1"
   inkscape:current-layer="Capa_1" />
<style
   type="text/css"
   id="style7794">
	.st0{fill:#B567CE;}
	.st1{fill:#FEFEFE;}
</style>


<path
   style="fill:#ffffff;stroke-width:0.241159;fill-opacity:1"
   d="m 120.24312,248.82937 -2.94888,-0.20608 -3.44184,-0.3939 -3.44186,-0.39394 -3.37623,-0.58095 -3.37623,-0.58095 -2.77334,-0.62569 -2.773325,-0.62571 -3.47141,-0.97072 -3.471421,-0.97071 -2.798728,-0.96396 -2.798716,-0.96396 -3.617396,-1.45663 -3.61739,-1.4566 -4.099708,-2.00852 -4.099709,-2.00853 -3.367682,-1.97073 -3.367691,-1.9707 -3.223734,-2.1576 -3.223735,-2.15759 -2.572629,-1.9488 -2.572629,-1.94884 -2.291014,-1.93882 -2.291014,-1.93882 -2.752793,-2.54586 -2.75279,-2.54581 -3.001228,-3.25565 -3.001226,-3.25566 -2.70081,-3.37623 -2.700811,-3.37623 -1.463656,-2.04985 -1.463657,-2.04986 -1.800862,-2.77333 -1.800865,-2.77332 -1.527848,-2.65276 -1.527848,-2.65275 -2.340844,-4.82319 -2.340857,-4.82318 -1.325267,-3.37624 -1.325243,-3.37623 -1.218842,-3.73797 -1.218821,-3.73797 -0.837763,-3.25564 -0.8377383,-3.25566 -0.6359617,-3.09876 -0.6359854,-3.09876 -0.5773597,-4.13601 -0.5773835,-4.13603 -0.2841582,-3.37623 -0.2841333,-3.37623 v -6.14957 -6.14955 l 0.2841333,-3.37624 0.2841582,-3.37623 0.5773835,-4.13603 0.5773597,-4.13601 0.6359854,-3.09877 0.6359617,-3.09876 0.8319033,-3.255644 0.831903,-3.25565 1.655124,-4.945251 1.655101,-4.945248 1.469865,-3.43641 1.469892,-3.436406 1.839169,-3.676311 1.839171,-3.676308 1.452285,-2.532173 1.452286,-2.532172 2.275409,-3.478406 2.275408,-3.478405 1.827775,-2.429999 1.827776,-2.429997 1.978135,-2.411595 1.978134,-2.411592 2.88901,-3.141675 2.889009,-3.141674 2.871785,-2.648612 2.871788,-2.648615 2.170434,-1.827268 2.170435,-1.82727 2.572629,-1.95099 2.572629,-1.950989 3.215195,-2.14744 3.215194,-2.147442 2.773332,-1.646848 2.773323,-1.646848 3.85855,-1.963852 3.858551,-1.963852 3.49681,-1.470334 3.49681,-1.470334 3.084185,-1.113867 3.084188,-1.113867 3.66827,-1.071296 3.668281,-1.0712983 3.135066,-0.7221635 3.13507,-0.7221661 3.49681,-0.5983695 3.49681,-0.5983716 3.25565,-0.3743979 3.25565,-0.3743968 4.34087,-0.2734173 4.34086,-0.273414 4.94377,0.1479633 4.94377,0.1479613 3.84134,0.3685081 3.8413,0.3685059 3.09803,0.4815661 3.09803,0.4815661 3.43052,0.7139572 3.43049,0.713955 3.5052,0.961652 3.50517,0.96165 3.00613,0.997637 3.0061,0.997632 3.37623,1.329202 3.37624,1.329204 4.59212,2.223691 4.59214,2.223691 3.24555,1.880918 3.24554,1.88092 3.20451,2.133411 3.20447,2.133412 2.46276,1.85054 2.46275,1.850541 2.77333,2.292853 2.77333,2.292854 5.07646,5.086318 5.07642,5.086321 2.00399,2.411593 2.00398,2.411593 2.1733,2.893913 2.17334,2.893911 1.98485,3.014492 1.98489,3.014492 1.13809,1.893361 1.13809,1.893364 1.5529,2.919197 1.5529,2.9192 1.46516,3.124636 1.46517,3.124639 1.1627,2.91497 1.16273,2.914973 0.88117,2.532173 0.88119,2.532173 1.04989,3.618217 1.04991,3.618214 0.88204,4.098884 0.88206,4.09889 0.56576,3.85854 0.56576,3.85856 0.31992,3.01448 0.31992,3.01449 v 8.07884 8.07884 l -0.31108,2.89392 -0.31111,2.89391 -0.49099,3.49681 -0.49103,3.49681 -0.71602,3.49681 -0.71601,3.49681 -0.82032,3.13507 -0.82031,3.13506 -1.00153,3.13508 -1.00154,3.13507 -1.70461,4.34087 -1.70463,4.34087 -2.72609,5.42609 -2.72611,5.42608 -2.29215,3.70283 -2.29215,3.70282 -2.30406,3.22654 -2.30406,3.22653 -2.70139,3.31991 -2.70138,3.31991 -5.18909,5.20865 -5.18911,5.20864 -2.77332,2.29223 -2.77333,2.29218 -2.96435,2.20249 -2.96437,2.20246 -2.75872,1.814 -2.75873,1.814 -3.40609,1.95424 -3.40611,1.95425 -4.13458,2.01055 -4.13458,2.01054 -3.61739,1.4316 -3.61739,1.43159 -3.37623,1.10848 -3.37623,1.1085 -3.13508,0.85447 -3.13506,0.85449 -3.37624,0.69704 -3.37623,0.69702 -3.13506,0.49869 -3.13508,0.4987 -3.85855,0.37623 -3.85856,0.37624 -6.14955,0.093 -6.14957,0.093 -2.94887,-0.20608 z m -4.68649,-41.38233 -1.04637,-0.9045 -2.08266,-2.1147 -2.08266,-2.11471 -1.68561,-2.24477 -1.68558,-2.24476 -1.11801,-1.84384 -1.11801,-1.84385 -1.18535,-2.49703 -1.18534,-2.49702 -0.84242,-2.43977 -0.84242,-2.43977 -0.60883,-2.74515 -0.60883,-2.74517 -0.254513,-2.3418 -0.254553,-2.3418 v -3.0157 -3.0157 l 0.379394,-2.72134 0.379375,-2.72133 0.362757,-1.56753 0.36276,-1.56754 0.85571,-2.65276 0.85568,-2.65275 1.06693,-2.4116 1.06694,-2.41159 1.58065,-2.7238 1.58067,-2.7238 1.91803,-2.54772 1.91803,-2.5477 -0.0742,-0.0532 -0.0741,-0.0532 -25.916519,6.36171 -25.916554,6.36172 -0.08683,0.0868 -0.08683,0.0868 0.878021,3.33769 0.878017,3.33768 1.21341,3.25564 1.213412,3.25565 1.639626,3.37624 1.639625,3.37622 1.573507,2.58236 1.573517,2.58235 1.164896,1.63701 1.164896,1.63698 1.86409,2.34378 1.864089,2.34379 2.455581,2.54945 2.455556,2.54948 2.312236,2.00499 2.312211,2.00498 2.457578,1.82127 2.457556,1.82126 2.24505,1.38877 2.24503,1.38878 2.411592,1.27543 2.411596,1.27543 2.411591,1.06467 2.41159,1.06468 2.89392,1.01638 2.89391,1.01639 3.13373,0.8061 3.13375,0.80609 0.0832,-0.0831 0.0831,-0.0831 z m 37.41853,-0.50635 2.77334,-0.83485 2.29101,-0.84019 2.29101,-0.84019 4.34086,-2.13744 4.34088,-2.13743 3.25564,-2.14513 3.25567,-2.14513 2.53216,-2.00497 2.53218,-2.00498 3.63372,-3.64528 3.63371,-3.64528 1.87089,-2.34123 1.87089,-2.34124 2.29133,-3.44659 2.29131,-3.44657 2.13688,-4.34088 2.13691,-4.34087 0.84017,-2.29101 0.84021,-2.29102 0.84325,-2.78273 0.84327,-2.78275 0.61519,-2.91366 0.61518,-2.91366 0.37821,-2.74418 0.37821,-2.74416 0.14479,-4.94377 0.14479,-4.94376 -0.28394,-3.25567 -0.28394,-3.25564 -0.48492,-2.89391 -0.48492,-2.89392 -0.6146,-2.53217 -0.61459,-2.53217 -1.03511,-3.13507 -1.03507,-3.13508 -1.23035,-2.89392 -1.23035,-2.8939 -1.69118,-3.10148 -1.69115,-3.101479 -1.7917,-2.686347 -1.7917,-2.686344 -2.11524,-2.652753 -2.11526,-2.652753 -3.38688,-3.385358 -3.38686,-3.385355 -2.53216,-2.023266 -2.53218,-2.023266 -2.83261,-1.872307 -2.83263,-1.87231 -2.47288,-1.390533 -2.4729,-1.390531 -3.37622,-1.484521 -3.37624,-1.484516 -2.21847,-0.759736 -2.21849,-0.759734 -3.03015,-0.830475 -3.03016,-0.830476 -3.67427,-0.607826 -3.67424,-0.607827 -2.89392,-0.244066 -2.89391,-0.24407 -1.50725,-0.0025 -1.50724,-0.0025 v -0.126598 -0.126602 l 0.81614,-1.621803 0.81611,-1.621806 0.74691,-2.230959 0.74689,-2.230954 0.53805,-2.471653 0.53809,-2.471649 0.009,-5.546665 0.009,-5.546664 -0.43153,-2.170434 -0.4315,-2.170433 -0.74145,-2.713043 -0.74146,-2.713042 -0.15341,7.23e-4 -0.1534,7.23e-4 -0.68849,1.94928 -0.68845,1.949281 -1.54437,3.131075 -1.54436,3.131075 -1.66301,2.62015 -1.66303,2.620151 -1.51617,2.005529 -1.51617,2.005531 -1.73473,2.058144 -1.73471,2.058139 -2.86138,2.85804 -2.86136,2.858037 -3.01448,2.527001 -3.01449,2.527 -3.15017,2.254714 -3.15015,2.254714 -3.823451,2.309362 -3.823443,2.309357 -5.446094,2.743059 -5.446106,2.743058 -1.808695,1.267105 -1.808695,1.267105 -3.37623,3.395908 -3.376255,3.395911 -2.239214,2.893911 -2.239202,2.893912 -2.254373,3.37623 -2.254372,3.376227 -1.739349,3.014502 -1.73935,3.01449 -2.125001,4.34086 -2.125001,4.34087 -1.567096,3.97913 -1.567099,3.97913 -0.732316,2.4116 -0.73232,2.41159 -0.616848,2.45529 -0.616846,2.45531 v 0.51806 0.51806 l 0.663188,-0.13556 0.663188,-0.13556 4.461447,-0.73667 4.461449,-0.73669 7.1142,-1.30992 7.114214,-1.30991 6.537637,-1.3174 6.537633,-1.3174 3.952802,-0.88038 3.952792,-0.88036 4.340867,-1.04654 4.340869,-1.04653 3.61739,-0.99927 3.61738,-0.99927 3.37623,-1.09297 3.37624,-1.09295 2.5855,-1.0813 2.58553,-1.08131 1.48947,-0.96269 1.48946,-0.96269 1.04757,-0.87564 1.04755,-0.87565 1.19026,-1.46703 1.19027,-1.46705 0.96098,-1.79957 0.96098,-1.79959 0.63898,-2.04885 0.63898,-2.04886 0.34549,-2.292019 0.34554,-2.292012 0.002,-2.417919 0.002,-2.417921 -0.25232,-2.012272 -0.25233,-2.012272 0.0995,-0.09956 0.0995,-0.09956 1.78545,1.194176 1.78542,1.194177 1.36093,1.426803 1.36096,1.4268 1.07299,1.667611 1.07298,1.667612 0.52698,1.202266 0.52695,1.202267 0.49818,1.81223 0.49819,1.812223 0.0657,3.3313 0.0657,3.3313 1.82027,1.03733 1.82025,1.03732 1.64377,1.16042 1.64376,1.16041 2.7837,2.79096 2.78374,2.79095 1.5989,2.41161 1.59891,2.41159 1.11409,2.29101 1.11409,2.29102 0.82928,2.65275 0.82931,2.65275 0.37321,2.17044 0.37327,2.17043 0.14844,2.55906 0.14843,2.55905 -0.30063,2.74646 -0.3006,2.74644 -0.66787,2.65547 -0.66784,2.6555 -0.7693,1.92654 -0.76928,1.92655 -1.0828,2.0399 -1.08283,2.03991 -1.37437,1.92108 -1.37434,1.92107 -2.01281,2.12391 -2.01282,2.12391 -2.20748,1.66945 -2.20747,1.66943 -2.16761,1.23303 -2.16759,1.23302 -2.41444,0.94189 -2.41441,0.94188 -1.92927,0.4796 -1.92928,0.4796 -1.8087,0.31303 -1.80869,0.31304 -3.85854,-0.006 -3.85856,-0.006 -2.75754,-0.54238 -2.75754,-0.5424 -2.42371,-0.81184 -2.42374,-0.81185 -0.11673,0.11676 -0.11677,0.11676 0.70611,2.07974 0.70614,2.07972 1.4847,3.03232 1.48469,3.03229 1.51388,2.29101 1.51388,2.29102 1.47273,1.80626 1.47274,1.80626 1.85483,1.85728 1.85486,1.85729 1.88311,1.50107 1.88314,1.50107 2.17043,1.43307 2.17043,1.43308 2.89391,1.40921 2.89392,1.40922 2.84043,0.95085 2.84044,0.95087 1.621,-0.36441 1.62103,-0.3644 2.77333,-0.83484 z m -75.943043,-95.33558 0.194929,-1.23311 0.4951,-1.91005 0.495123,-1.91007 0.592915,-1.57526 0.592939,-1.57528 1.000136,-1.98538 1.000136,-1.985383 1.103955,-1.647075 1.103955,-1.647075 1.518845,-1.640511 1.518869,-1.640508 1.752073,-1.33329 1.752073,-1.333287 1.599221,-0.871906 1.59922,-0.871904 1.964827,-0.717071 1.964816,-0.717076 h 0.227275 0.227287 l 0.546325,1.748405 0.546347,1.748405 -0.01255,2.893913 -0.01255,2.893911 -0.630336,1.768802 -0.630348,1.76882 -0.800841,1.35416 -0.80084,1.35415 -1.688124,1.72951 -1.688112,1.72951 -2.149421,1.39818 -2.149454,1.39819 -2.312003,1.01509 -2.312015,1.01508 -2.652752,0.84798 -2.652753,0.84795 -0.749596,0.15765 -0.749595,0.15766 0.194929,-1.23313 z"
   id="path5213" /><path
   style="fill:#000000"
   id="path5211"
   d="" /></svg>
