<?xml version="1.0" encoding="UTF-8" standalone="no"?>
<!-- Generator: Adobe Illustrator 23.0.6, SVG Export Plug-In . SVG Version: 6.00 Build 0)  -->

<svg
   version="1.1"
   id="Capa_1"
   x="0px"
   y="0px"
   viewBox="0 0 255.1 255.1"
   style="enable-background:new 0 0 255.1 255.1;"
   xml:space="preserve"
   sodipodi:docname="fairy_icon.svg"
   inkscape:version="1.2.2 (732a01da63, 2022-12-09)"
   xmlns:inkscape="http://www.inkscape.org/namespaces/inkscape"
   xmlns:sodipodi="http://sodipodi.sourceforge.net/DTD/sodipodi-0.dtd"
   xmlns="http://www.w3.org/2000/svg"
   xmlns:svg="http://www.w3.org/2000/svg"><defs
   id="defs18446" /><sodipodi:namedview
   id="namedview18444"
   pagecolor="#ffffff"
   bordercolor="#999999"
   borderopacity="1"
   inkscape:showpageshadow="0"
   inkscape:pageopacity="0"
   inkscape:pagecheckerboard="0"
   inkscape:deskcolor="#d1d1d1"
   showgrid="false"
   inkscape:zoom="4.0258721"
   inkscape:cx="127.55"
   inkscape:cy="127.42581"
   inkscape:window-width="2560"
   inkscape:window-height="1417"
   inkscape:window-x="-8"
   inkscape:window-y="-8"
   inkscape:window-maximized="1"
   inkscape:current-layer="Capa_1" />
<style
   type="text/css"
   id="style18437">
	.st0{fill:#FB89EB;}
	.st1{fill-rule:evenodd;clip-rule:evenodd;fill:#FFFFFF;}
</style>
<path
   id="circle18439"
   class="st0"
   d="M 127.59961 6 A 121.6 121.6 0 0 0 6 127.59961 A 121.6 121.6 0 0 0 127.59961 249.19922 A 121.6 121.6 0 0 0 249.19922 127.59961 A 121.6 121.6 0 0 0 127.59961 6 z M 127.52539 38.058594 C 127.55739 37.999594 127.64183 37.999594 127.67383 38.058594 L 151.82227 82.210938 L 181.23438 73.681641 C 181.29836 73.663641 181.35884 73.723109 181.33984 73.787109 L 172.64258 103.1875 L 217.14062 127.52539 C 217.19962 127.55739 217.19962 127.64183 217.14062 127.67383 L 173.00586 151.8125 L 181.33984 179.98242 C 181.35884 180.04742 181.29836 180.10689 181.23438 180.08789 L 152.49609 171.75586 L 127.67383 217.14062 C 127.64183 217.19962 127.55839 217.19962 127.52539 217.14062 L 102.70312 171.75586 L 73.964844 180.08789 C 73.900844 180.10689 73.840375 180.04742 73.859375 179.98242 L 82.193359 151.8125 L 38.058594 127.67383 C 37.999594 127.64183 37.999594 127.55739 38.058594 127.52539 L 82.556641 103.1875 L 73.859375 73.787109 C 73.840375 73.722109 73.900844 73.662641 73.964844 73.681641 L 103.37695 82.210938 L 127.52539 38.058594 z M 127.83398 96.222656 C 127.80473 96.222656 127.77577 96.236125 127.75977 96.265625 L 116.625 116.62695 L 96.265625 127.76172 C 96.207625 127.79372 96.207625 127.87716 96.265625 127.91016 L 116.625 139.04492 L 127.75977 159.4043 C 127.79177 159.4633 127.8762 159.4633 127.9082 159.4043 L 139.04492 139.04492 L 159.4043 127.91016 C 159.4633 127.87816 159.4633 127.79372 159.4043 127.76172 L 139.04492 116.62695 L 127.9082 96.265625 C 127.8922 96.236125 127.86323 96.222656 127.83398 96.222656 z "
   style="fill:#ffffff;fill-opacity:1" />

</svg>
