<?xml version="1.0" encoding="UTF-8" standalone="no"?>
<!-- Generator: Adobe Illustrator 23.0.6, SVG Export Plug-In . SVG Version: 6.00 Build 0)  -->

<svg
   version="1.1"
   id="Capa_1"
   x="0px"
   y="0px"
   viewBox="0 0 255.1 255.1"
   style="enable-background:new 0 0 255.1 255.1;"
   xml:space="preserve"
   sodipodi:docname="fighting_icon.svg"
   inkscape:version="1.2.2 (732a01da63, 2022-12-09)"
   xmlns:inkscape="http://www.inkscape.org/namespaces/inkscape"
   xmlns:sodipodi="http://sodipodi.sourceforge.net/DTD/sodipodi-0.dtd"
   xmlns="http://www.w3.org/2000/svg"
   xmlns:svg="http://www.w3.org/2000/svg"><defs
   id="defs17099">
	
	
</defs><sodipodi:namedview
   id="namedview17097"
   pagecolor="#ffffff"
   bordercolor="#999999"
   borderopacity="1"
   inkscape:showpageshadow="0"
   inkscape:pageopacity="0"
   inkscape:pagecheckerboard="0"
   inkscape:deskcolor="#d1d1d1"
   showgrid="false"
   inkscape:zoom="4.0258721"
   inkscape:cx="127.55"
   inkscape:cy="127.42581"
   inkscape:window-width="2560"
   inkscape:window-height="1417"
   inkscape:window-x="-8"
   inkscape:window-y="-8"
   inkscape:window-maximized="1"
   inkscape:current-layer="Capa_1" />
<style
   type="text/css"
   id="style17086">
	.st0{fill:#E0306A;}
	.st1{fill:#FEFEFE;}
</style>
<path
   id="circle17088"
   class="st0"
   d="M 127.59961 6 A 121.6 121.6 0 0 0 6 127.59961 A 121.6 121.6 0 0 0 127.59961 249.19922 A 121.6 121.6 0 0 0 249.19922 127.59961 A 121.6 121.6 0 0 0 127.59961 6 z M 149.14453 72.707031 C 154.17153 72.664031 159.19958 72.659984 164.22656 72.708984 C 167.25456 72.738984 168.57114 74.08949 168.57812 77.146484 C 168.60312 88.079462 168.58875 99.01038 168.59375 109.94336 C 168.59375 110.82036 168.55497 111.70727 168.66797 112.57227 C 168.93397 114.60625 170.12192 115.69178 172.16992 115.80078 C 173.20392 115.85578 174.24825 115.86297 175.28125 115.79297 C 177.17725 115.66397 178.36414 114.55711 178.61914 112.66211 C 178.73514 111.79811 178.70117 110.9102 178.70117 110.0332 C 178.70617 99.819226 178.70408 89.604605 178.70508 79.390625 C 178.70508 78.672627 178.6928 77.953326 178.7168 77.236328 C 178.8108 74.416334 180.02047 73.164578 182.85547 73.142578 C 188.12145 73.101578 193.39027 73.098531 198.65625 73.144531 C 201.43625 73.168531 202.71884 74.493678 202.83984 77.263672 C 202.86084 77.74167 202.84766 78.220219 202.84766 78.699219 C 202.81666 111.89616 202.78595 145.09408 202.75195 178.29102 C 202.75095 179.089 202.78322 179.89359 202.69922 180.68359 C 202.47222 182.82259 201.27744 183.99945 199.14844 184.18945 C 198.35644 184.26045 197.55386 184.2207 196.75586 184.2207 C 177.6809 184.2227 158.60712 184.22266 139.53516 184.22266 C 120.3832 184.22266 101.23204 184.17577 82.080078 184.25977 C 78.266086 184.27677 76.523297 183.24609 76.529297 178.78711 C 76.575297 145.35117 76.50375 111.91545 76.46875 78.478516 C 76.46875 77.999516 76.454469 77.519967 76.480469 77.042969 C 76.614469 74.559973 77.906723 73.235436 80.386719 73.148438 C 82.219715 73.084438 84.056582 73.129906 85.892578 73.128906 C 88.924572 73.127906 91.963287 73.255609 94.988281 73.099609 C 99.785271 72.851611 100.72092 74.847305 100.66992 78.654297 C 100.54892 87.670279 100.63086 96.68905 100.63086 105.70703 C 100.63086 107.62203 100.60358 109.53717 100.64258 111.45117 C 100.70858 114.67517 101.81675 115.77731 104.96875 115.82031 C 105.60675 115.82931 106.24581 115.84359 106.88281 115.80859 C 109.15181 115.68459 110.38241 114.49078 110.44141 112.17578 C 110.51241 109.38478 110.4658 106.58986 110.4668 103.79688 C 110.4678 95.577886 110.4658 87.357656 110.4668 79.138672 C 110.4668 78.500674 110.45456 77.862609 110.47656 77.224609 C 110.57556 74.484615 111.87478 73.192672 114.67578 73.138672 C 116.98878 73.093672 119.30319 73.126953 121.61719 73.126953 C 124.49017 73.126953 127.36238 73.104719 130.23438 73.136719 C 133.31636 73.170719 134.57989 74.40749 134.58789 77.521484 C 134.61589 88.374464 134.59847 99.226152 134.60547 110.07812 C 134.60647 110.95512 134.57031 111.84403 134.69531 112.70703 C 134.96531 114.58303 136.16903 115.66992 138.08203 115.79492 C 139.11503 115.86192 140.15841 115.86386 141.19141 115.79688 C 143.21039 115.66788 144.40095 114.51803 144.62695 112.49805 C 144.71495 111.70805 144.68845 110.90442 144.68945 110.10742 C 144.69245 99.733444 144.69041 89.360308 144.69141 78.986328 C 144.69141 78.34833 144.68027 77.708312 144.69727 77.070312 C 144.77727 74.071318 146.08953 72.733031 149.14453 72.707031 z M 61.742188 105.55078 C 62.855186 105.60778 63.980939 105.50714 65.085938 105.61914 C 67.180935 105.83114 68.383844 107.08646 68.589844 109.18945 C 68.659844 109.90045 68.626953 110.6248 68.626953 111.3418 C 68.628953 122.58379 68.628906 133.82442 68.628906 145.06641 C 68.594906 145.06541 68.559391 145.06445 68.525391 145.06445 C 68.525391 156.14644 68.527437 167.22856 68.523438 178.31055 C 68.523438 179.18655 68.545266 180.07145 68.447266 180.93945 C 68.217266 182.97045 67.118076 184.07205 65.080078 184.37305 C 64.531079 184.45405 63.965109 184.4097 63.412109 184.4707 C 60.446112 184.7957 58.626905 183.67089 57.253906 180.83789 C 53.49891 173.0949 49.415965 165.50976 45.417969 157.88477 C 44.695969 156.50677 44.275203 155.12855 44.283203 153.56055 C 44.311203 147.90055 44.298953 142.23912 44.251953 136.57812 C 44.238953 135.01913 44.585688 133.60856 45.304688 132.22656 C 49.495683 124.16357 53.685973 116.09913 57.792969 107.99414 C 58.663968 106.27514 59.845189 105.45378 61.742188 105.55078 z "
   style="fill:#ffffff;fill-opacity:1" />

</svg>
