<?xml version="1.0" encoding="UTF-8" standalone="no"?>
<!-- Generator: Adobe Illustrator 23.0.6, SVG Export Plug-In . SVG Version: 6.00 Build 0)  -->

<svg
   version="1.1"
   id="Capa_1"
   x="0px"
   y="0px"
   viewBox="0 0 255.1 255.1"
   style="enable-background:new 0 0 255.1 255.1;"
   xml:space="preserve"
   sodipodi:docname="fire_icon.svg"
   inkscape:version="1.2.2 (732a01da63, 2022-12-09)"
   xmlns:inkscape="http://www.inkscape.org/namespaces/inkscape"
   xmlns:sodipodi="http://sodipodi.sourceforge.net/DTD/sodipodi-0.dtd"
   xmlns="http://www.w3.org/2000/svg"
   xmlns:svg="http://www.w3.org/2000/svg"><defs
   id="defs7803" /><sodipodi:namedview
   id="namedview7801"
   pagecolor="#bababa"
   bordercolor="#999999"
   borderopacity="1"
   inkscape:showpageshadow="0"
   inkscape:pageopacity="0"
   inkscape:pagecheckerboard="0"
   inkscape:deskcolor="#d1d1d1"
   showgrid="false"
   inkscape:zoom="0.1258085"
   inkscape:cx="-1808.3038"
   inkscape:cy="-484.86389"
   inkscape:window-width="2560"
   inkscape:window-height="1417"
   inkscape:window-x="-8"
   inkscape:window-y="-8"
   inkscape:window-maximized="1"
   inkscape:current-layer="Capa_1" />
<style
   type="text/css"
   id="style7794">
	.st0{fill:#B567CE;}
	.st1{fill:#FEFEFE;}
</style>
<path
   id="circle7796"
   style="fill:#ffffff;fill-opacity:1"
   class="st0"
   d="M 127.59961 6 C 60.442156 6.0002154 6.0002154 60.442156 6 127.59961 C 6.0002154 194.75706 60.442156 249.199 127.59961 249.19922 C 194.75706 249.199 249.199 194.75706 249.19922 127.59961 C 249.199 60.442156 194.75706 6.0002154 127.59961 6 z M 123.83594 38.507812 L 124.11133 38.507812 L 124.38867 38.507812 L 126.69141 40.203125 L 128.99219 41.896484 L 131.12305 43.994141 L 133.25195 46.091797 L 135.02148 48.425781 L 136.79102 50.757812 L 138.20703 53.353516 L 139.62305 55.947266 L 140.41602 58.021484 L 141.21094 60.09375 L 141.97461 63.222656 L 142.73633 66.353516 L 142.99219 69.669922 L 143.24609 72.986328 L 142.97266 75.914062 L 142.69727 78.84375 L 140.33398 79.501953 L 137.96875 80.158203 L 136.23047 81.179688 L 134.49023 82.199219 L 132.26562 84.257812 L 130.03906 86.318359 L 128.58008 89.195312 L 127.11914 92.070312 L 126.69141 95.042969 L 126.26367 98.013672 L 126.67188 100.85156 L 127.08203 103.69141 L 128.35547 106.35938 L 129.62891 109.0293 L 131.1875 110.71875 L 132.74414 112.41016 L 135.06641 113.95898 L 137.38672 115.50977 L 139.91602 116.29102 L 142.44727 117.07227 L 145.80859 117.06445 L 149.17188 117.05664 L 151.69922 116.16016 L 154.22656 115.26562 L 155.95898 114.16992 L 157.68945 113.07422 L 159.52734 111.1875 L 161.36523 109.30078 L 162.71484 106.60156 L 164.06641 103.90234 L 164.54102 101.08984 L 165.01562 98.275391 L 164.7832 96.296875 L 164.55078 94.320312 L 163.97266 92.375 L 163.39453 90.429688 L 162.01367 88.136719 L 160.63086 85.841797 L 160.78711 85.685547 L 160.94336 85.529297 L 163.61328 86.958984 L 166.28516 88.386719 L 169.35352 90.576172 L 172.42188 92.763672 L 175.00391 95.292969 L 177.58594 97.820312 L 179.27734 99.958984 L 180.96875 102.09766 L 182.27148 104.13477 L 183.57422 106.16992 L 184.75586 108.51172 L 185.9375 110.85156 L 186.75195 112.89258 L 187.56641 114.93359 L 188.32031 117.61914 L 189.07227 120.30273 L 189.63086 124.23047 L 190.18945 128.15625 L 190.18945 130.87891 L 190.18945 133.60156 L 189.63086 137.5293 L 189.07227 141.45508 L 188.32031 144.14062 L 187.56641 146.82617 L 186.75195 148.86719 L 185.9375 150.9082 L 184.72656 153.33984 L 183.51562 155.77148 L 181.80469 158.32617 L 180.09375 160.87891 L 177.82617 163.50195 L 175.55859 166.125 L 173.06055 168.30859 L 170.5625 170.49023 L 167.91211 172.20898 L 165.26172 173.92773 L 162.27344 175.41797 L 159.2832 176.91016 L 156.94922 177.70703 L 154.61719 178.50195 L 151.31055 179.29883 L 148.00391 180.0957 L 142.85156 180.3418 L 137.69727 180.58789 L 137.70117 180.23633 L 137.70312 179.88477 L 139.1582 179.05078 L 140.61523 178.2168 L 142.47266 176.57812 L 144.33008 174.93945 L 145.99219 172.55078 L 147.6543 170.16211 L 148.50977 168.2168 L 149.36328 166.27344 L 149.94727 163.95508 L 150.5332 161.63672 L 150.5332 158.33984 L 150.5332 155.04297 L 149.71875 152.10156 L 148.90625 149.16016 L 147.51953 146.63086 L 146.13281 144.10352 L 143.17969 141.18164 L 140.22656 138.25781 L 137.30859 136.84961 L 134.39258 135.44336 L 131.5918 134.81445 L 128.79297 134.18555 L 126.22461 134.18555 L 123.6543 134.18555 L 120.85547 134.80664 L 118.05664 135.42773 L 115.22852 136.93359 L 112.40039 138.44141 L 110.81055 139.7168 L 109.2207 140.99219 L 107.36914 143.32617 L 105.51953 145.6582 L 104.73438 147.21484 L 103.94727 148.76953 L 103.08203 151.49219 L 102.2168 154.21484 L 102.20703 158.88281 L 102.19922 163.55078 L 103.05859 166.66211 L 103.91797 169.77344 L 105.45508 172.88477 L 106.99219 175.99609 L 108.93945 178.43164 L 110.88867 180.86719 L 113.11133 182.63281 L 115.33398 184.39648 L 117.76758 185.77344 L 120.20117 187.15039 L 123.01758 188.23047 L 125.83398 189.3125 L 129.5293 190.22656 L 133.22461 191.14258 L 142.75195 191.13867 L 152.28125 191.13477 L 156.10156 190.28125 L 159.91992 189.42773 L 162.51758 188.62891 L 165.11719 187.82812 L 167.64453 186.82422 L 170.17188 185.81836 L 172.50586 184.65625 L 174.83984 183.49414 L 177.0293 182.17578 L 179.2207 180.85742 L 179.48242 180.85742 L 179.74609 180.85742 L 179.13867 181.73242 L 178.53125 182.60742 L 175.32422 185.86523 L 172.11719 189.12305 L 168.9668 191.58984 L 165.81641 194.05469 L 161.94922 196.35156 L 158.08203 198.64844 L 154.84961 200.06836 L 151.61719 201.49023 L 149.22656 202.29883 L 146.83594 203.10742 L 144.11328 203.81445 L 141.39258 204.52148 L 137.19922 205.13477 L 133.00781 205.74805 L 126.89258 205.70508 L 120.7793 205.66016 L 117.2793 205.11523 L 113.7793 204.57031 L 110.22852 203.625 L 106.67969 202.68164 L 103.14258 201.30078 L 99.607422 199.91797 L 96.298828 198.1875 L 92.990234 196.45703 L 90.548828 194.80859 L 88.109375 193.16016 L 85.386719 191.02734 L 82.664062 188.89258 L 79.410156 185.59375 L 76.158203 182.29492 L 73.550781 178.75586 L 70.943359 175.2168 L 69.554688 172.88477 L 68.166016 170.55078 L 67.001953 168.2168 L 65.839844 165.88281 L 64.859375 163.35547 L 63.876953 160.82617 L 63.232422 158.81055 L 62.587891 156.79492 L 61.849609 153.70117 L 61.111328 150.60938 L 60.660156 147.16211 L 60.207031 143.71484 L 60.207031 138.46289 L 60.207031 133.21289 L 60.660156 129.76562 L 61.111328 126.31836 L 61.849609 123.22461 L 62.587891 120.13086 L 63.232422 118.11523 L 63.876953 116.09961 L 64.853516 113.57227 L 65.830078 111.04297 L 67.541016 107.71094 L 69.251953 104.37695 L 69.755859 103.68945 L 70.257812 103 L 70.287109 110.7168 L 70.314453 118.43359 L 71.302734 123.29492 L 72.291016 128.15625 L 73.525391 131.85156 L 74.759766 135.54688 L 76.894531 139.98438 L 79.03125 144.42188 L 80.361328 146.39648 L 81.691406 148.37109 L 81.691406 148.12695 L 81.691406 147.88281 L 80.833984 144.04883 L 79.976562 140.21289 L 79.958984 130.87891 L 79.941406 121.54492 L 80.826172 117.35938 L 81.708984 113.17188 L 82.900391 109.58008 L 84.09375 105.98828 L 86.246094 101.51367 L 88.398438 97.041016 L 90.832031 93.347656 L 93.267578 89.652344 L 96.369141 86.152344 L 99.470703 82.650391 L 102.15234 80.292969 L 104.83203 77.935547 L 107.75 75.791016 L 110.66602 73.646484 L 113.26953 70.833984 L 115.87305 68.019531 L 117.23633 65.966797 L 118.59961 63.912109 L 119.93945 61.224609 L 121.28125 58.537109 L 122.25195 55.425781 L 123.22266 52.314453 L 123.70508 48.751953 L 124.18555 45.1875 L 124.01172 41.847656 L 123.83594 38.507812 z " />

</svg>
