<?xml version="1.0" encoding="UTF-8" standalone="no"?>
<!-- Generator: Adobe Illustrator 23.0.6, SVG Export Plug-In . SVG Version: 6.00 Build 0)  -->

<svg
   version="1.1"
   id="Capa_1"
   x="0px"
   y="0px"
   viewBox="0 0 255.1 255.1"
   style="enable-background:new 0 0 255.1 255.1;"
   xml:space="preserve"
   sodipodi:docname="flying_icon.svg"
   inkscape:version="1.2.2 (732a01da63, 2022-12-09)"
   xmlns:inkscape="http://www.inkscape.org/namespaces/inkscape"
   xmlns:sodipodi="http://sodipodi.sourceforge.net/DTD/sodipodi-0.dtd"
   xmlns="http://www.w3.org/2000/svg"
   xmlns:svg="http://www.w3.org/2000/svg"><defs
   id="defs7803" /><sodipodi:namedview
   id="namedview7801"
   pagecolor="#bababa"
   bordercolor="#999999"
   borderopacity="1"
   inkscape:showpageshadow="0"
   inkscape:pageopacity="0"
   inkscape:pagecheckerboard="0"
   inkscape:deskcolor="#d1d1d1"
   showgrid="false"
   inkscape:zoom="0.71168037"
   inkscape:cx="93.440824"
   inkscape:cy="112.41001"
   inkscape:window-width="2560"
   inkscape:window-height="1417"
   inkscape:window-x="-8"
   inkscape:window-y="-8"
   inkscape:window-maximized="1"
   inkscape:current-layer="Capa_1" />
<style
   type="text/css"
   id="style7794">
	.st0{fill:#B567CE;}
	.st1{fill:#FEFEFE;}
</style>


<path
   style="fill:#000000"
   id="path5211"
   d="" /><path
   style="fill:#ffffff;stroke-width:0.344689;fill-opacity:1"
   d="m 122.32239,248.73055 -1.89579,-0.10141 -4.30861,-0.37393 -4.30862,-0.37393 -4.84791,-0.81843 -4.8479,-0.81843 -4.255733,-1.07441 -4.255736,-1.07441 -3.305169,-1.05525 -3.305172,-1.05525 -4.13627,-1.65038 -4.13627,-1.65039 -3.274547,-1.52505 -3.274547,-1.52506 -4.129455,-2.34565 -4.129458,-2.34565 -4.063792,-2.72257 -4.063792,-2.72256 -4.387907,-3.50544 -4.387901,-3.50543 -5.186548,-5.18656 -5.186551,-5.18654 -3.505434,-4.38791 -3.505437,-4.3879 -2.742574,-4.09366 -2.742588,-4.09366 -2.447052,-4.32724 -2.447051,-4.32723 -2.052934,-4.51567 -2.052934,-4.51567 -1.590948,-4.389 -1.590947,-4.38899 -1.186971,-4.31057 -1.1869373,-4.31056 -0.9979785,-4.998 -0.997944,-4.99799 -0.5987595,-5.17034 -0.598794,-5.17033 v -8.1002 -8.10019 l 0.5835932,-4.99799 0.5835587,-4.998 0.7043723,-3.79158 0.7043378,-3.79158 1.0313443,-4.105642 1.031341,-4.105647 1.051233,-3.305169 1.051267,-3.305173 1.651716,-4.136269 1.651716,-4.13627 1.527697,-3.274547 1.527731,-3.274547 2.345644,-4.129455 2.345644,-4.129459 2.722596,-4.063792 2.722555,-4.063791 3.510376,-4.387907 3.510366,-4.387905 5.181612,-5.181608 5.181609,-5.181612 4.387904,-3.510373 4.387907,-3.510376 4.147362,-2.778557 4.147362,-2.778563 4.327875,-2.42251 4.327879,-2.422509 4.026624,-1.833643 4.026624,-1.833678 4.13627,-1.564785 4.13627,-1.564751 4.136269,-1.200138 4.13627,-1.200139 3.963926,-0.8821974 3.96392,-0.8822319 4.82565,-0.6947554 4.82565,-0.6947554 6.29058,-0.3819501 6.29058,-0.3819155 6.29057,0.3819155 6.29058,0.3819501 4.82565,0.6947554 4.82565,0.6947554 3.96392,0.8822319 3.96393,0.8821974 4.13627,1.200139 4.13626,1.200138 4.13627,1.571541 4.13627,1.571576 3.96393,1.819545 3.96392,1.819545 3.1102,1.69787 3.11024,1.697835 2.92182,1.811169 2.92186,1.811149 3.17718,2.214028 3.17713,2.214028 3.88899,3.162623 3.88896,3.162622 5.00047,5.014721 5.00048,5.014717 3.30481,4.136268 3.30481,4.136269 2.25471,3.274547 2.25468,3.274547 1.95749,3.237565 1.95746,3.237565 2.52106,5.034975 2.52102,5.034974 1.95804,4.943356 1.95804,4.943352 1.49861,5.224977 1.4986,5.224974 0.86982,4.30861 0.86986,4.30862 0.53923,3.87837 0.53927,3.87838 0.33855,6.20378 0.33852,6.20379 -0.33852,6.20378 -0.33855,6.20378 -0.53927,3.87838 -0.53923,3.87837 -0.86986,4.30861 -0.86982,4.30862 -1.4986,5.22497 -1.49861,5.22498 -1.95797,4.94335 -1.95797,4.94336 -2.40928,4.82565 -2.40927,4.82564 -2.17702,3.62674 -2.17706,3.62673 -2.6215,3.74461 -2.62153,3.7446 -2.9868,3.65871 -2.9868,3.65872 -5.0163,5.00597 -5.01626,5.00598 -4.37841,3.50602 -4.37838,3.50603 -4.92823,3.24973 -4.92819,3.24973 -3.93925,2.13854 -3.93924,2.13854 -3.66805,1.65498 -3.66804,1.65497 -4.11214,1.5639 -4.11215,1.56389 -4.13626,1.20013 -4.13627,1.20013 -3.96393,0.88222 -3.96392,0.88221 -4.82565,0.69301 -4.82565,0.693 -5.68737,0.35439 -5.68737,0.3544 -2.24048,-0.0622 -2.24048,-0.0622 z m -9.25697,-41.1533 3.5696,-0.36422 3.27455,-0.70314 3.27454,-0.70314 3.27455,-1.03552 3.27455,-1.0355 4.2343,-2.01541 4.2343,-2.01541 3.37423,-2.21083 3.37423,-2.21083 2.38745,-1.99107 2.38746,-1.99107 2.49899,-2.44273 2.499,-2.44272 v -0.2214 -0.22139 l -4.39479,-0.18363 -4.39478,-0.18363 -2.75752,-0.7193 -2.75751,-0.71929 -3.44689,-1.72044 -3.44689,-1.72044 -0.86172,-0.67893 -0.86173,-0.67894 1.37876,0.3366 1.37876,0.33661 5.38187,0.21228 5.38187,0.21227 3.91646,-0.43248 3.91646,-0.43249 4.05782,-0.99089 4.05782,-0.99088 3.02117,-1.16678 3.02116,-1.16677 2.78802,-1.40179 2.78802,-1.40178 3.58911,-2.4 3.58911,-2.39999 2.92489,-2.55955 2.9249,-2.55955 2.08933,-2.38694 2.0893,-2.38694 1.56323,-2.06813 1.56324,-2.06814 0.9146,-1.45808 0.91456,-1.45808 v -0.17551 -0.17551 l -3.36072,2.24918 -3.36072,2.24917 -3.44689,1.6784 -3.44689,1.6784 -3.59911,1.25046 -3.59914,1.25046 -4.32871,0.92175 -4.32874,0.92174 h -7.58316 -7.58316 l -4.32875,-0.92174 -4.32871,-0.92175 -3.59914,-1.24567 -3.5991,-1.24566 -3.64227,-1.81387 -3.64229,-1.81386 -2.9068,-1.94366 -2.90683,-1.94367 -1.03407,-0.84837 -1.03407,-0.84837 3.96393,1.32748 3.96392,1.32748 3.27455,0.69807 3.27455,0.69809 3.34714,0.36773 3.34713,0.36774 h 3.78752 3.78751 l 3.94549,-0.51721 3.94551,-0.51722 3.95731,-0.99942 3.95727,-0.99943 3.23109,-1.28658 3.23108,-1.28658 2.33234,-1.16791 2.33234,-1.1679 2.32096,-1.41664 2.32096,-1.41663 3.10221,-2.33371 3.1022,-2.33372 3.23084,-3.22241 3.23087,-3.2224 2.16986,-2.771 2.16981,-2.77099 1.71239,-2.76089 1.71234,-2.76088 1.24636,-2.47492 1.24633,-2.4749 1.03338,-2.60138 1.03338,-2.60137 v -0.34834 -0.34834 l -2.499,2.16729 -2.499,2.1673 -2.41723,1.78127 -2.41724,1.78128 -3.09779,1.95656 -3.09779,1.95655 -4.48096,2.18742 -4.48096,2.18742 -4.54396,1.54888 -4.54394,1.54889 -4.06154,0.91093 -4.06154,0.91092 -3.8033,0.51721 -3.80333,0.5172 -6.72144,0.005 -6.72144,0.005 -4.92799,-0.73192 -4.92795,-0.73191 -3.86162,-0.99724 -3.86159,-0.99723 -3.44689,-1.24821 -3.44689,-1.2482 -4.05131,-1.93692 -4.05127,-1.93692 0.10345,-0.10344 0.10344,-0.10345 1.70736,0.52383 1.70737,0.52382 3.1022,0.67124 3.10221,0.67124 4.30651,0.51574 4.30647,0.51574 h 5.09989 5.09985 l 3.34713,-0.35621 3.34714,-0.35621 3.61924,-0.69571 3.61923,-0.69571 3.52211,-1.01098 3.52213,-1.01097 3.1993,-1.25451 3.19934,-1.25451 4.30861,-2.18302 4.30862,-2.18301 3.44582,-2.30831 3.44582,-2.30831 2.4139,-1.9166 2.41389,-1.9166 3.57301,-3.45903 3.57305,-3.459028 2.78226,-3.446891 2.78223,-3.446891 2.37718,-3.619236 2.37719,-3.619236 2.37883,-4.834055 2.37884,-4.834055 1.69708,-5.16193 1.69704,-5.161931 0.75263,-3.69577 0.75263,-3.695768 -0.11813,-0.317259 -0.11809,-0.317258 -3.61923,2.739103 -3.61924,2.7391 -4.13627,2.637568 -4.13627,2.637565 -5.17034,2.628448 -5.17033,2.628444 -4.48096,1.758714 -4.48096,1.758718 -4.6533,1.404067 -4.65331,1.404064 -4.99799,1.011938 -4.99799,1.011938 -4.48096,0.597853 -4.48096,0.59785 -8.78957,0.0085 -8.78958,0.0085 -3.44689,-0.435198 -3.44689,-0.435201 -5.17034,-0.913316 -5.17033,-0.913319 -7.58317,-0.01044 -7.583161,-0.01044 -3.79158,0.766972 -3.791581,0.766967 -3.023334,0.877393 -3.023334,0.877396 -3.870448,1.641144 -3.870449,1.641148 -3.274547,1.934712 -3.274547,1.934716 -2.757513,2.063747 -2.757513,2.063751 -3.018719,2.828426 -3.018718,2.82843 -2.695338,3.35086 -2.695335,3.35086 -2.015229,3.2508 -2.015225,3.2508 -1.463934,3.1245 -1.463936,3.1245 -1.245011,3.57682 -1.245006,3.57682 -0.927383,4.32873 -0.927379,4.32873 -0.0091,8.27254 -0.0091,8.27254 0.814332,3.96393 0.814331,3.96392 1.370446,4.13627 1.370443,4.13627 1.761961,3.61924 1.761956,3.61923 2.666336,3.96393 2.666336,3.96392 2.571561,2.92986 2.57156,2.92986 2.19011,1.91779 2.19011,1.91779 2.240479,1.75122 2.24048,1.75123 2.77898,1.72346 2.778984,1.72346 2.736042,1.37188 2.736046,1.37188 3.368295,1.25814 3.368292,1.25814 3.697836,0.89258 3.697832,0.89258 3.619236,0.44032 3.619236,0.44032 3.49654,0.0374 3.49655,0.0374 3.56957,-0.36422 z"
   id="path8164" /></svg>
