<?xml version="1.0" encoding="UTF-8" standalone="no"?>
<!-- Generator: Adobe Illustrator 23.0.6, SVG Export Plug-In . SVG Version: 6.00 Build 0)  -->

<svg
   version="1.1"
   id="Capa_1"
   x="0px"
   y="0px"
   viewBox="0 0 255.1 255.1"
   style="enable-background:new 0 0 255.1 255.1;"
   xml:space="preserve"
   sodipodi:docname="ghost_icon.svg"
   inkscape:version="1.2.2 (732a01da63, 2022-12-09)"
   xmlns:inkscape="http://www.inkscape.org/namespaces/inkscape"
   xmlns:sodipodi="http://sodipodi.sourceforge.net/DTD/sodipodi-0.dtd"
   xmlns="http://www.w3.org/2000/svg"
   xmlns:svg="http://www.w3.org/2000/svg"><defs
   id="defs11170" /><sodipodi:namedview
   id="namedview11168"
   pagecolor="#ffffff"
   bordercolor="#999999"
   borderopacity="1"
   inkscape:showpageshadow="0"
   inkscape:pageopacity="0"
   inkscape:pagecheckerboard="0"
   inkscape:deskcolor="#d1d1d1"
   showgrid="false"
   inkscape:zoom="4.0258721"
   inkscape:cx="125.31446"
   inkscape:cy="108.05112"
   inkscape:window-width="2560"
   inkscape:window-height="1417"
   inkscape:window-x="-8"
   inkscape:window-y="-8"
   inkscape:window-maximized="1"
   inkscape:current-layer="Capa_1" />
<style
   type="text/css"
   id="style11161">
	.st0{fill:#5B5466;}
	.st1{fill-rule:evenodd;clip-rule:evenodd;fill:#FFFFFF;}
</style>
<path
   id="circle11163"
   style="fill:#ffffff;stroke:none;stroke-opacity:1;fill-opacity:1"
   class="st0"
   d="M 127.59961 6 A 121.6 121.6 0 0 0 6 127.59961 A 121.6 121.6 0 0 0 127.59961 249.19922 A 121.6 121.6 0 0 0 249.19922 127.59961 A 121.6 121.6 0 0 0 127.59961 6 z M 127.59961 50.236328 C 170.32653 50.236328 204.96289 84.872694 204.96289 127.59961 C 204.96289 170.32653 170.32653 204.96289 127.59961 204.96289 C 84.872694 204.96289 50.236328 170.32653 50.236328 127.59961 C 50.236328 84.872694 84.872694 50.236328 127.59961 50.236328 z M 118.38672 66.439453 C 115.74872 66.439453 113.14108 66.565594 110.58008 66.808594 C 130.08406 79.692581 142.98242 102.0137 142.98242 127.38867 C 142.98042 154.06665 128.72837 177.36597 107.52539 189.87695 C 111.06539 190.34895 114.69372 190.59375 118.38672 190.59375 C 157.70668 190.59375 189.58008 162.80054 189.58008 128.51758 C 189.58008 94.232612 157.70568 66.439453 118.38672 66.439453 z " />

</svg>
