<?xml version="1.0" encoding="UTF-8" standalone="no"?>
<!-- Generator: Adobe Illustrator 23.0.6, SVG Export Plug-In . SVG Version: 6.00 Build 0)  -->

<svg
   version="1.1"
   id="Capa_1"
   x="0px"
   y="0px"
   viewBox="0 0 255.1 255.1"
   style="enable-background:new 0 0 255.1 255.1;"
   xml:space="preserve"
   sodipodi:docname="ghost_icon.svg"
   inkscape:version="1.2.2 (732a01da63, 2022-12-09)"
   xmlns:inkscape="http://www.inkscape.org/namespaces/inkscape"
   xmlns:sodipodi="http://sodipodi.sourceforge.net/DTD/sodipodi-0.dtd"
   xmlns="http://www.w3.org/2000/svg"
   xmlns:svg="http://www.w3.org/2000/svg"><defs
   id="defs7803" /><sodipodi:namedview
   id="namedview7801"
   pagecolor="#bababa"
   bordercolor="#999999"
   borderopacity="1"
   inkscape:showpageshadow="0"
   inkscape:pageopacity="0"
   inkscape:pagecheckerboard="0"
   inkscape:deskcolor="#d1d1d1"
   showgrid="false"
   inkscape:zoom="0.71168037"
   inkscape:cx="93.440824"
   inkscape:cy="112.41001"
   inkscape:window-width="2560"
   inkscape:window-height="1417"
   inkscape:window-x="-8"
   inkscape:window-y="-8"
   inkscape:window-maximized="1"
   inkscape:current-layer="Capa_1" />
<style
   type="text/css"
   id="style7794">
	.st0{fill:#B567CE;}
	.st1{fill:#FEFEFE;}
</style>


<path
   style="fill:#000000"
   id="path5211"
   d="" /><path
   style="fill:#ffffff;stroke-width:0.345145;fill-opacity:1"
   d="m 117.76298,248.6569 -3.45145,-0.31689 -3.79659,-0.53834 -3.79659,-0.53835 -4.24074,-0.86536 -4.240737,-0.86537 -4.663734,-1.36375 -4.663734,-1.36375 -4.211031,-1.58473 -4.211029,-1.58471 -5.24485,-2.52381 -5.244851,-2.52381 -3.383768,-1.98572 -3.383768,-1.98572 -3.451447,-2.31186 -3.451448,-2.31185 -3.969165,-3.0606 -3.969165,-3.06062 -6.564974,-6.56497 -6.564974,-6.56497 -3.060613,-3.96917 -3.060612,-3.96916 -2.305084,-3.45145 -2.305084,-3.45145 -1.803129,-3.00533 -1.803129,-3.00533 -2.714467,-5.62329 -2.714467,-5.62329 -1.58342,-4.21102 -1.583421,-4.21104 -1.363753,-4.66373 -1.3637534,-4.66373 -0.8641562,-4.24074 -0.8641527,-4.24074 -0.5239194,-3.62402 -0.5239194,-3.62402 -0.3566001,-4.45071 -0.3566035,-4.45072 v -4.73178 -4.73179 l 0.3566035,-4.45071 0.3566001,-4.45072 0.5239194,-3.62402 0.5239194,-3.62402 0.8641527,-4.24074 0.8641562,-4.240737 1.3637534,-4.663734 1.363753,-4.663734 1.584722,-4.211031 1.584718,-4.211029 2.523809,-5.24485 2.523805,-5.244851 1.985722,-3.383768 1.985724,-3.383768 2.311852,-3.451448 2.311849,-3.451447 3.060612,-3.969165 3.060613,-3.969163 6.564974,-6.564974 6.564974,-6.564974 3.969165,-3.060613 3.969165,-3.060612 3.451447,-2.310692 3.451448,-2.310693 3.062276,-1.801931 3.062279,-1.801932 4.358333,-2.183168 4.358336,-2.183169 4.832027,-1.91314 4.832026,-1.913141 4.136335,-1.253169 4.136336,-1.253169 3.528684,-0.8337763 3.52868,-0.8337731 4.0699,-0.6827205 4.06991,-0.6827204 3.62402,-0.4408948 3.62402,-0.4408948 8.97376,-0.00242 8.97376,-0.00242 3.7966,0.4404496 3.79659,0.4404496 4.14174,0.6925226 4.14173,0.6925225 4.83203,1.2034956 4.83203,1.203492 4.54776,1.535905 4.54777,1.535904 3.73571,1.58934 3.7357,1.589336 4.65946,2.385558 4.65945,2.385558 3.70753,2.328253 3.70754,2.328253 3.11507,2.203166 3.11504,2.203169 4.22205,3.533423 4.22205,3.53342 4.66539,4.790326 4.66539,4.790326 3.03762,3.796591 3.03765,3.796592 2.68488,3.969165 2.68489,3.969164 1.99659,3.408363 1.99656,3.408363 2.50288,5.220256 2.50289,5.220255 1.56409,4.141737 1.56413,4.141738 1.20169,4.141737 1.20172,4.141737 0.90107,4.022825 0.90104,4.02282 0.66989,4.43322 0.66989,4.43323 0.36282,4.64216 0.36285,4.64213 v 4.34889 4.3489 l -0.36285,4.64216 -0.36282,4.64216 -0.66989,4.43322 -0.66989,4.43323 -0.90104,4.02282 -0.90107,4.02282 -1.20172,4.14174 -1.20169,4.14174 -1.56413,4.14173 -1.56409,4.14174 -2.50289,5.22026 -2.50288,5.22025 -1.99656,3.40837 -1.99659,3.40836 -2.68489,3.96916 -2.68488,3.96917 -3.03765,3.79659 -3.03762,3.79659 -4.66539,4.79033 -4.66539,4.79033 -4.22205,3.53341 -4.22205,3.53342 -3.11504,2.20317 -3.11507,2.20317 -3.70754,2.34033 -3.70753,2.34033 -6.04003,3.02769 -6.04003,3.02769 -4.79308,1.8153 -4.79307,1.81531 -4.18069,1.20409 -4.18069,1.2041 -3.1063,0.69835 -3.10631,0.69834 -2.76115,0.49823 -2.76116,0.49823 -4.31431,0.53778 -4.31431,0.53778 -8.1109,0.12221 -8.1109,0.1222 z m 44.03319,-43.46753 11.58958,-0.3306 4.97736,-0.36702 4.97737,-0.36702 3.57903,-0.52381 3.57903,-0.52381 1.85841,-0.69533 1.8584,-0.69532 0.3438,-0.64236 0.34376,-0.64237 -0.3089,-0.81253 -0.30894,-0.81252 -1.33234,-1.19466 -1.33234,-1.19465 -3.37555,-2.38321 -3.37555,-2.38322 -1.55256,-1.36661 -1.55255,-1.36661 -0.50614,-0.97877 -0.50615,-0.97878 v -1.22883 -1.22883 l 3.19717,-3.36148 3.19716,-3.36147 1.76328,-2.24344 1.76328,-2.24345 2.26933,-3.47048 2.26933,-3.47049 2.05665,-4.1227 2.05661,-4.12269 1.28377,-3.45145 1.28376,-3.45145 1.14792,-4.53775 1.14788,-4.53775 0.58613,-4.09087 0.58612,-4.09087 v -6.38517 -6.38518 l -0.40748,-2.93373 -0.40748,-2.93374 -0.70609,-3.56922 -0.7061,-3.56923 -1.20666,-3.81065 -1.20666,-3.81065 -1.6577,-3.911665 -1.65773,-3.911663 -2.31502,-3.986646 -2.315,-3.986643 -2.14029,-2.904114 -2.14028,-2.904117 -2.86176,-3.275272 -2.86177,-3.275275 -3.1649,-2.763826 -3.1649,-2.763829 -2.3457,-1.774403 -2.34571,-1.774403 -3.00404,-1.892038 -3.00404,-1.892039 -4.14174,-2.028067 -4.14173,-2.028067 -4.48689,-1.531905 -4.48688,-1.531907 -3.1063,-0.718291 -3.1063,-0.718295 -3.62402,-0.517255 -3.62402,-0.517258 -4.31431,-0.228413 -4.31431,-0.228413 -4.57879,0.393768 -4.57879,0.393769 -3.72742,0.671179 -3.72742,0.671182 -3.08357,0.886608 -3.08356,0.886611 -2.93374,1.056533 -2.933725,1.05653 -4.520731,2.196787 -4.52073,2.196788 -3.823334,2.554454 -3.823337,2.554455 -2.700565,2.197771 -2.700567,2.197771 -3.108854,3.108854 -3.108853,3.108853 -2.197771,2.700568 -2.197772,2.700564 -2.554454,3.823338 -2.554454,3.823334 -2.208916,4.52073 -2.208916,4.52073 -1.377556,4.011127 -1.377552,4.01112 -0.871981,3.58206 -0.87198,3.58206 -0.515978,3.62402 -0.515977,3.62402 -0.228279,4.14174 -0.228282,4.14174 0.403412,4.83202 0.403412,4.83203 0.842643,4.35457 0.84264,4.35457 1.231204,3.88817 1.231204,3.88817 1.666462,3.93231 1.666466,3.9323 2.14846,3.70162 2.148464,3.70161 2.516409,3.45144 2.516409,3.45145 2.538278,2.83393 2.53828,2.83393 2.924923,2.65636 2.924922,2.65636 3.106302,2.30909 3.106303,2.30908 3.278875,1.97749 3.278876,1.97749 3.106302,1.48288 3.106303,1.48289 3.451445,1.295 3.45145,1.295 4.6088,1.1658 4.6088,1.1658 4.01982,0.50982 4.01982,0.50981 2.07087,0.11417 2.07086,0.11417 12.42521,0.0584 12.42522,0.0584 11.58958,-0.33059 z m -68.711041,-69.7595 -1.898296,-0.30391 -2.933731,-1.43596 -2.93373,-1.43596 -2.070869,-2.10805 -2.070868,-2.10805 -1.092663,-2.06548 -1.092659,-2.06548 -0.581096,-2.24345 -0.581096,-2.24344 0.150169,-3.27887 0.150169,-3.27888 0.732825,-2.01854 0.732828,-2.01855 1.076994,-1.67835 1.076993,-1.67835 1.371774,-1.41352 1.371771,-1.41352 2.122295,-1.3717 2.122292,-1.371702 0.563994,2.340382 0.56399,2.34038 0.574332,1.33718 0.574331,1.33718 1.525005,2.1371 1.525005,2.13711 1.839846,1.40548 1.839849,1.40548 1.853058,0.92802 1.853059,0.92802 2.28868,0.48512 2.28868,0.4851 1.7568,0.006 1.75679,0.006 2.69901,-0.69029 2.69901,-0.69029 h 0.16801 0.168 l -0.2118,2.5023 -0.21181,2.5023 -0.65913,1.91489 -0.65914,1.91491 -0.78245,1.53654 -0.78245,1.53655 -2.45271,2.44463 -2.4527,2.44462 -2.24344,1.09533 -2.24344,1.09533 -2.41601,0.50951 -2.416017,0.5095 -1.380579,-0.0344 -1.380579,-0.0343 -1.898296,-0.3039 z m 61.826071,-0.14727 -2.19827,-0.47699 -2.231,-1.04401 -2.23099,-1.044 -2.36096,-2.27932 -2.36096,-2.27931 -1.25189,-2.38235 -1.25189,-2.38234 -0.49422,-2.33224 -0.49422,-2.33224 -0.006,-1.46686 -0.006,-1.46687 h 0.11737 0.11736 l 2.699,0.69029 2.69901,0.69029 1.7568,-0.006 1.7568,-0.006 2.28868,-0.48511 2.28868,-0.48511 1.85306,-0.92978 1.85305,-0.92978 1.6694,-1.25399 1.6694,-1.25399 1.57279,-2.07087 1.57279,-2.07086 0.65258,-1.45723 0.65258,-1.45723 0.60018,-2.44162 0.60017,-2.441627 2.06281,1.337307 2.0628,1.33732 1.95236,2.11497 1.95236,2.11498 0.89246,1.8865 0.89246,1.8865 0.52034,1.99774 0.52035,1.99774 -0.004,2.60236 -0.004,2.60235 -0.50101,1.88265 -0.50101,1.88265 -1.09684,2.22799 -1.09684,2.22799 -2.14884,2.14884 -2.14883,2.14883 -2.89325,1.41442 -2.89326,1.41442 -2.24344,0.34811 -2.24344,0.34812 -1.208,-0.0248 -1.20801,-0.0249 -2.19828,-0.47699 z"
   id="path9642" /></svg>
