<?xml version="1.0" encoding="UTF-8" standalone="no"?>
<!-- Generator: Adobe Illustrator 23.0.6, SVG Export Plug-In . SVG Version: 6.00 Build 0)  -->

<svg
   version="1.1"
   id="Capa_1"
   x="0px"
   y="0px"
   viewBox="0 0 255.1 255.1"
   style="enable-background:new 0 0 255.1 255.1;"
   xml:space="preserve"
   sodipodi:docname="ice_icon.svg"
   inkscape:version="1.2.2 (732a01da63, 2022-12-09)"
   xmlns:inkscape="http://www.inkscape.org/namespaces/inkscape"
   xmlns:sodipodi="http://sodipodi.sourceforge.net/DTD/sodipodi-0.dtd"
   xmlns="http://www.w3.org/2000/svg"
   xmlns:svg="http://www.w3.org/2000/svg"><defs
   id="defs15081">
	
	
	
	
	

		
		
	</defs><sodipodi:namedview
   id="namedview15079"
   pagecolor="#ffffff"
   bordercolor="#999999"
   borderopacity="1"
   inkscape:showpageshadow="0"
   inkscape:pageopacity="0"
   inkscape:pagecheckerboard="0"
   inkscape:deskcolor="#d1d1d1"
   showgrid="false"
   inkscape:zoom="4.0258721"
   inkscape:cx="127.55"
   inkscape:cy="127.42581"
   inkscape:window-width="2560"
   inkscape:window-height="1417"
   inkscape:window-x="-8"
   inkscape:window-y="-8"
   inkscape:window-maximized="1"
   inkscape:current-layer="Capa_1" />
<style
   type="text/css"
   id="style15058">
	.st0{fill:#4CD1C0;}
	.st1{fill:#FFFFFF;}
</style>
<path
   id="circle15060"
   class="st0"
   d="M 127.59961 6 A 121.6 121.6 0 0 0 6 127.59961 A 121.6 121.6 0 0 0 127.59961 249.19922 A 121.6 121.6 0 0 0 249.19922 127.59961 A 121.6 121.6 0 0 0 127.59961 6 z M 80.007812 52.126953 L 123.44336 74.988281 L 123.44336 119.75586 L 123.11328 119.5918 L 122.49609 119.2832 L 80.019531 98.148438 L 80.021484 98.146484 L 80.007812 98.140625 L 80.007812 52.126953 z M 175.19141 52.126953 L 175.19141 98.140625 L 175.17969 98.146484 L 175.17969 98.148438 L 132.70312 119.2832 L 132.08789 119.5918 L 131.75781 119.75586 L 131.75781 74.988281 L 175.19141 52.126953 z M 80.007812 106.49023 L 123.44336 127.62305 L 80.007812 148.70898 L 36.572266 127.62891 L 80.007812 106.49023 z M 175.19141 106.49023 L 218.62891 127.62891 L 175.19141 148.70898 L 131.75781 127.62305 L 175.19141 106.49023 z M 123.44336 135.44531 L 123.44336 180.21094 L 80.007812 203.07227 L 80.007812 157.05859 L 80.019531 157.05273 L 122.49609 135.91602 L 123.11328 135.60938 L 123.44336 135.44531 z M 131.75781 135.44531 L 132.08789 135.60938 L 132.70312 135.91602 L 175.17969 157.05273 L 175.19141 157.05859 L 175.19141 203.07227 L 131.75781 180.21094 L 131.75781 135.44531 z "
   style="fill:#ffffff;fill-opacity:1" />

</svg>
