<?xml version="1.0" encoding="UTF-8" standalone="no"?>
<!-- Generator: Adobe Illustrator 25.4.1, SVG Export Plug-In . SVG Version: 6.00 Build 0)  -->

<svg
   version="1.1"
   id="Capa_1"
   x="0px"
   y="0px"
   viewBox="0 0 255.1000061 255.1000061"
   style="enable-background:new 0 0 255.1000061 255.1000061;"
   xml:space="preserve"
   sodipodi:docname="normal_icon.svg"
   inkscape:version="1.2.2 (732a01da63, 2022-12-09)"
   xmlns:inkscape="http://www.inkscape.org/namespaces/inkscape"
   xmlns:sodipodi="http://sodipodi.sourceforge.net/DTD/sodipodi-0.dtd"
   xmlns="http://www.w3.org/2000/svg"
   xmlns:svg="http://www.w3.org/2000/svg"><defs
   id="defs13763" /><sodipodi:namedview
   id="namedview13761"
   pagecolor="#ffffff"
   bordercolor="#999999"
   borderopacity="1"
   inkscape:showpageshadow="0"
   inkscape:pageopacity="0"
   inkscape:pagecheckerboard="0"
   inkscape:deskcolor="#d1d1d1"
   showgrid="false"
   inkscape:zoom="4.0258721"
   inkscape:cx="127.55"
   inkscape:cy="127.42581"
   inkscape:window-width="2560"
   inkscape:window-height="1417"
   inkscape:window-x="-8"
   inkscape:window-y="-8"
   inkscape:window-maximized="1"
   inkscape:current-layer="Capa_1" />
<style
   type="text/css"
   id="style13754">
	.st0{fill:#9FA19F;}
	.st1{fill-rule:evenodd;clip-rule:evenodd;fill:#FFFFFF;}
</style>
<path
   id="circle13756"
   class="st0"
   d="M 127.59961 5.9492188 A 121.6 121.6 0 0 0 6 127.55078 A 121.6 121.6 0 0 0 127.59961 249.15039 A 121.6 121.6 0 0 0 249.19922 127.55078 A 121.6 121.6 0 0 0 127.59961 5.9492188 z M 82.380859 56.654297 C 89.446953 56.654297 95.75684 59.861821 99.939453 64.900391 C 108.41851 61.232364 117.76722 59.189453 127.59961 59.189453 C 137.49005 59.189453 146.88947 61.259647 155.4082 64.96875 C 159.59033 59.891057 165.9275 56.654297 173.02539 56.654297 C 185.6306 56.654297 195.83398 66.859632 195.83398 79.464844 C 195.83398 85.870782 193.1958 91.653324 188.94922 95.794922 C 194.26025 105.63317 197.27734 116.89405 197.27734 128.86719 C 197.27734 167.37301 166.10543 198.54492 127.59961 198.54492 C 89.093789 198.54492 57.921875 167.37301 57.921875 128.86719 C 57.921875 116.84119 60.963506 105.53112 66.318359 95.662109 C 62.151738 91.530156 59.572266 85.801935 59.572266 79.464844 C 59.572266 66.859632 69.775586 56.654297 82.380859 56.654297 z M 127.67188 84.548828 C 101.88873 84.548828 80.974609 105.60588 80.974609 131.24609 C 80.974609 156.88624 101.74616 177.94141 127.5293 177.94141 C 153.3125 177.94141 174.22461 157.02923 174.22461 131.24609 C 174.22461 105.46289 153.45508 84.548828 127.67188 84.548828 z "
   style="fill:#ffffff;fill-opacity:1" />

</svg>
