<?xml version="1.0" encoding="UTF-8" standalone="no"?>
<!-- Generator: Adobe Illustrator 23.0.6, SVG Export Plug-In . SVG Version: 6.00 Build 0)  -->

<svg
   version="1.1"
   id="Capa_1"
   x="0px"
   y="0px"
   viewBox="0 0 255.1 255.1"
   style="enable-background:new 0 0 255.1 255.1;"
   xml:space="preserve"
   sodipodi:docname="poison_icon.svg"
   inkscape:version="1.2.2 (732a01da63, 2022-12-09)"
   xmlns:inkscape="http://www.inkscape.org/namespaces/inkscape"
   xmlns:sodipodi="http://sodipodi.sourceforge.net/DTD/sodipodi-0.dtd"
   xmlns="http://www.w3.org/2000/svg"
   xmlns:svg="http://www.w3.org/2000/svg"><defs
   id="defs7803" /><sodipodi:namedview
   id="namedview7801"
   pagecolor="#ffffff"
   bordercolor="#999999"
   borderopacity="1"
   inkscape:showpageshadow="0"
   inkscape:pageopacity="0"
   inkscape:pagecheckerboard="0"
   inkscape:deskcolor="#d1d1d1"
   showgrid="false"
   inkscape:zoom="4.0258721"
   inkscape:cx="127.55"
   inkscape:cy="127.42581"
   inkscape:window-width="2560"
   inkscape:window-height="1417"
   inkscape:window-x="-8"
   inkscape:window-y="-8"
   inkscape:window-maximized="1"
   inkscape:current-layer="Capa_1" />
<style
   type="text/css"
   id="style7794">
	.st0{fill:#B567CE;}
	.st1{fill:#FEFEFE;}
</style>
<path
   id="circle7796"
   class="st0"
   d="M 127.59961 6 A 121.6 121.6 0 0 0 6 127.59961 A 121.6 121.6 0 0 0 127.59961 249.19922 A 121.6 121.6 0 0 0 249.19922 127.59961 A 121.6 121.6 0 0 0 127.59961 6 z M 128.42773 48.753906 C 148.04571 49.064906 166.88508 54.535481 183.28906 67.230469 C 194.00905 75.52746 202.12935 85.870904 206.40234 98.837891 C 212.86634 118.45587 209.62804 136.70331 197.87305 153.5293 C 194.00805 159.06129 189.32395 163.86396 184.00195 168.00195 C 182.44295 169.21395 182.09538 170.33258 182.60938 172.26758 C 184.56937 179.63257 184.05547 186.8894 180.98047 193.90039 C 179.30247 197.72639 176.91703 201.02685 173.45703 203.46484 C 167.81104 207.44384 161.00781 207.44531 155.38281 203.44531 C 151.41682 200.62432 148.93197 196.70681 147.16797 192.25781 C 146.86897 191.50381 146.84923 190.15711 146.11523 190.16211 C 145.09024 190.16911 145.24659 191.56266 144.93359 192.34766 C 143.3436 196.33365 141.011 199.73853 137.5 202.26953 C 130.90801 207.02153 122.22449 206.52807 116.1875 201.08008 C 113.3905 198.55608 111.37575 195.51742 110.09375 191.98242 C 109.89475 191.43242 109.71875 190.87075 109.46875 190.34375 C 109.28275 189.95075 108.93423 189.91417 108.74023 190.32617 C 108.42123 191.00617 108.17125 191.71983 107.90625 192.42383 C 106.58525 195.92482 104.65217 199.02572 101.95117 201.63672 C 95.288179 208.07571 86.091118 208.05868 79.453125 201.55469 C 74.61513 196.81369 72.313921 190.87552 71.669922 184.26953 C 71.252922 179.99754 71.38347 175.70521 72.730469 171.57422 C 73.207468 170.10922 72.797483 169.29134 71.646484 168.40234 C 64.609491 162.96335 58.745542 156.45368 54.185547 148.80469 C 48.106553 138.6097 45.086125 127.56421 45.578125 115.69922 C 46.176124 101.26823 51.538681 88.648645 60.888672 77.722656 C 71.862661 64.898669 85.831469 56.82962 101.93945 52.265625 C 110.29144 49.895627 118.84274 48.868906 128.42773 48.753906 z M 128.58398 81.013672 C 118.52155 80.81126 108.88048 82.822536 99.740234 87.410156 C 92.088242 91.251152 85.689262 96.564476 81.572266 104.23047 C 76.84727 113.02746 76.596411 122.00735 80.941406 131.02734 C 84.445403 138.30134 90.087851 143.57585 96.964844 147.58984 C 106.39383 153.09384 116.65968 155.45405 127.51367 155.49805 C 133.93167 155.52505 140.22147 154.65467 146.35547 152.76367 C 155.17746 150.04467 162.97435 145.64729 169.15234 138.6543 C 179.63633 126.78831 179.99358 111.23919 170.05859 98.908203 C 166.8666 94.946207 162.99186 91.763872 158.63086 89.171875 C 150.70287 84.45988 142.09487 81.979374 132.92188 81.234375 C 131.46738 81.116125 130.02148 81.042588 128.58398 81.013672 z "
   style="fill:#ffffff;fill-opacity:1" />

</svg>
