<?xml version="1.0" encoding="UTF-8" standalone="no"?>
<!-- Generator: Adobe Illustrator 23.0.6, SVG Export Plug-In . SVG Version: 6.00 Build 0)  -->

<svg
   version="1.1"
   id="Capa_1"
   x="0px"
   y="0px"
   viewBox="0 0 255.1 255.1"
   style="enable-background:new 0 0 255.1 255.1;"
   xml:space="preserve"
   sodipodi:docname="psychic_icon.svg"
   inkscape:version="1.2.2 (732a01da63, 2022-12-09)"
   xmlns:inkscape="http://www.inkscape.org/namespaces/inkscape"
   xmlns:sodipodi="http://sodipodi.sourceforge.net/DTD/sodipodi-0.dtd"
   xmlns="http://www.w3.org/2000/svg"
   xmlns:svg="http://www.w3.org/2000/svg"><defs
   id="defs9054" /><sodipodi:namedview
   id="namedview9052"
   pagecolor="#ffffff"
   bordercolor="#999999"
   borderopacity="1"
   inkscape:showpageshadow="0"
   inkscape:pageopacity="0"
   inkscape:pagecheckerboard="0"
   inkscape:deskcolor="#d1d1d1"
   showgrid="false"
   inkscape:zoom="4.0258721"
   inkscape:cx="127.55"
   inkscape:cy="127.42581"
   inkscape:window-width="2560"
   inkscape:window-height="1417"
   inkscape:window-x="-8"
   inkscape:window-y="-8"
   inkscape:window-maximized="1"
   inkscape:current-layer="Capa_1" />
<style
   type="text/css"
   id="style9045">
	.st0{fill:#FF6675;}
	.st1{fill:#FEFEFE;}
</style>
<path
   id="circle9047"
   class="st0"
   d="M 127.59961 6 A 121.6 121.6 0 0 0 6 127.59961 A 121.6 121.6 0 0 0 127.59961 249.19922 A 121.6 121.6 0 0 0 249.19922 127.59961 A 121.6 121.6 0 0 0 127.59961 6 z M 129.56836 53.960938 C 130.76637 53.95941 131.9687 53.986719 133.17383 54.042969 C 147.93681 54.731968 161.34931 59.287056 173.0293 68.498047 C 182.20329 75.73404 188.39102 85.101245 192.04102 96.115234 C 197.42501 112.36422 196.42163 128.1935 188.55664 143.52148 C 185.96464 148.57348 182.18936 152.59852 178.06836 156.35352 C 170.51237 163.23751 161.82902 168.07661 151.70703 169.84961 C 136.84705 172.45261 123.40605 169.29224 112.03906 159.03125 C 104.82707 152.52226 100.7497 144.30291 99.470703 134.66992 C 98.656704 128.54393 99.017174 122.48763 101.07617 116.68164 C 105.32517 104.70065 114.01789 97.591419 126.29688 94.982422 C 133.92687 93.361423 141.36787 94.234567 148.13086 98.476562 C 155.32085 102.98556 159.2763 109.70632 160.4043 117.94531 C 161.7923 128.0863 154.35205 138.07817 144.16406 140.32617 C 141.15207 140.99017 138.15367 141.04922 135.13867 140.32422 C 129.32868 138.92722 124.61141 133.87948 123.69141 128.02148 C 123.33941 125.77849 123.71281 123.58178 124.25781 121.42578 C 124.60481 120.05278 125.56456 119.51592 126.72656 119.79492 C 127.83956 120.06292 128.51841 121.03389 128.31641 122.33789 C 128.15541 123.37389 128.05564 124.39864 128.18164 125.43164 C 128.87664 131.10663 133.73947 134.51703 139.60547 133.45703 C 139.75147 133.43103 139.89211 133.38742 140.03711 133.35742 C 150.2521 131.21642 151.25359 120.66457 147.68359 114.64258 C 145.1466 110.36358 141.24803 107.97591 136.45703 107.00391 C 126.74004 105.03291 118.66458 111.1138 115.64258 118.2168 C 111.84858 127.13379 113.37258 135.3844 119.64258 142.65039 C 128.22357 152.59338 142.88811 154.98731 154.49609 148.44531 C 164.37108 142.88032 170.37003 134.4606 171.83203 123.22461 C 173.28903 112.02862 170.38923 102.07105 162.74023 93.414062 C 155.86324 85.63107 147.32844 81.204467 137.31445 79.605469 C 112.52848 75.647473 91.716007 88.388772 82.791016 110.21875 C 79.105019 119.23474 77.98511 128.6479 79.037109 138.33789 C 80.643108 153.13188 86.688636 165.79024 97.390625 176.11523 C 106.80762 185.20123 118.03079 190.95711 130.92578 193.28711 C 150.32976 196.79411 168.63231 193.32846 186.0293 184.35547 C 186.8053 183.95547 187.50952 183.33173 188.47852 183.42773 L 188.50586 183.45703 C 187.77886 184.53303 186.64691 185.14142 185.62891 185.85742 C 175.07992 193.27541 163.36272 197.77974 150.67773 199.92773 C 143.84874 201.08473 136.97798 201.45814 130.08398 201.11914 C 114.165 200.33814 99.249643 196.27966 85.972656 187.13867 C 71.068671 176.87768 61.755168 162.82931 57.701172 145.23633 C 56.024174 137.96034 55.476985 130.57929 55.958984 123.1543 C 56.795984 110.23831 60.073804 97.987895 67.091797 87.003906 C 76.170788 72.79492 88.901469 63.198229 104.93945 57.990234 C 112.97107 55.382737 121.18226 53.971629 129.56836 53.960938 z "
   style="fill:#ffffff;fill-opacity:1" />

</svg>
