<?xml version="1.0" encoding="UTF-8" standalone="no"?>
<!-- Generator: Adobe Illustrator 23.0.6, SVG Export Plug-In . SVG Version: 6.00 Build 0)  -->

<svg
   version="1.1"
   id="Capa_1"
   x="0px"
   y="0px"
   viewBox="0 0 255.1 255.1"
   style="enable-background:new 0 0 255.1 255.1;"
   xml:space="preserve"
   sodipodi:docname="rock_icon.svg"
   inkscape:version="1.2.2 (732a01da63, 2022-12-09)"
   xmlns:inkscape="http://www.inkscape.org/namespaces/inkscape"
   xmlns:sodipodi="http://sodipodi.sourceforge.net/DTD/sodipodi-0.dtd"
   xmlns="http://www.w3.org/2000/svg"
   xmlns:svg="http://www.w3.org/2000/svg"><defs
   id="defs5843" /><sodipodi:namedview
   id="namedview5841"
   pagecolor="#ffffff"
   bordercolor="#999999"
   borderopacity="1"
   inkscape:showpageshadow="0"
   inkscape:pageopacity="0"
   inkscape:pagecheckerboard="0"
   inkscape:deskcolor="#d1d1d1"
   showgrid="false"
   inkscape:zoom="4.0258721"
   inkscape:cx="127.55"
   inkscape:cy="127.42581"
   inkscape:window-width="2560"
   inkscape:window-height="1417"
   inkscape:window-x="-8"
   inkscape:window-y="-8"
   inkscape:window-maximized="1"
   inkscape:current-layer="Capa_1" />
<style
   type="text/css"
   id="style5834">
	.st0{fill:#C8B686;}
	.st1{fill-rule:evenodd;clip-rule:evenodd;fill:#FFFFFF;}
</style>
<path
   id="circle5836"
   class="st0"
   d="M 127.59961 6 A 121.6 121.6 0 0 0 6 127.59961 A 121.6 121.6 0 0 0 127.59961 249.19922 A 121.6 121.6 0 0 0 249.19922 127.59961 A 121.6 121.6 0 0 0 127.59961 6 z M 184.4082 61.1875 L 187.81445 61.1875 C 187.84045 61.1875 187.86309 61.205469 187.87109 61.230469 L 212.11914 138.00195 C 212.12714 138.02595 212.11861 138.05041 212.09961 138.06641 L 194.2207 152.02539 C 194.1937 152.04639 194.15672 152.04067 194.13672 152.01367 L 173.59961 124.03906 C 173.58961 124.02606 173.58489 124.01014 173.58789 123.99414 L 184.34961 61.238281 C 184.35461 61.209281 184.3792 61.1875 184.4082 61.1875 z M 98.234375 61.490234 L 171.19727 61.490234 C 171.23327 61.490234 171.26381 61.524547 171.25781 61.560547 L 162.42383 120.83203 C 162.42183 120.84903 162.41244 120.86305 162.39844 120.87305 L 80.023438 177.74219 C 80.008438 177.75319 79.988703 177.756 79.970703 177.75 L 43.117188 165.69922 C 43.093188 165.69122 43.076172 165.66858 43.076172 165.64258 L 43.076172 128.01953 C 43.076172 128.00453 43.082797 127.99147 43.091797 127.98047 L 98.189453 61.513672 C 98.200453 61.499672 98.216375 61.490234 98.234375 61.490234 z M 165.53711 132.7793 C 165.56511 132.7603 165.60209 132.76888 165.62109 132.79688 L 183.5918 159.53516 C 183.6098 159.56216 183.60317 159.59819 183.57617 159.61719 L 135.64258 194 C 135.62658 194.011 135.60784 194.01381 135.58984 194.00781 L 95.328125 180.82031 L 165.53711 132.7793 z "
   style="fill:#ffffff;fill-opacity:1" />

</svg>
