<?xml version="1.0" encoding="UTF-8" standalone="no"?>
<!-- Generator: Adobe Illustrator 23.0.6, SVG Export Plug-In . SVG Version: 6.00 Build 0)  -->

<svg
   version="1.1"
   id="Capa_1"
   x="0px"
   y="0px"
   viewBox="0 0 255.1 255.1"
   style="enable-background:new 0 0 255.1 255.1;"
   xml:space="preserve"
   sodipodi:docname="steel_icon.svg"
   inkscape:version="1.2.2 (732a01da63, 2022-12-09)"
   xmlns:inkscape="http://www.inkscape.org/namespaces/inkscape"
   xmlns:sodipodi="http://sodipodi.sourceforge.net/DTD/sodipodi-0.dtd"
   xmlns="http://www.w3.org/2000/svg"
   xmlns:svg="http://www.w3.org/2000/svg"><defs
   id="defs4133" /><sodipodi:namedview
   id="namedview4131"
   pagecolor="#ffffff"
   bordercolor="#999999"
   borderopacity="1"
   inkscape:showpageshadow="0"
   inkscape:pageopacity="0"
   inkscape:pagecheckerboard="0"
   inkscape:deskcolor="#d1d1d1"
   showgrid="false"
   inkscape:zoom="4.0258721"
   inkscape:cx="127.55"
   inkscape:cy="127.42581"
   inkscape:window-width="2560"
   inkscape:window-height="1417"
   inkscape:window-x="-8"
   inkscape:window-y="-8"
   inkscape:window-maximized="1"
   inkscape:current-layer="Capa_1" />
<style
   type="text/css"
   id="style4124">
	.st0{fill:#5A8EA2;}
	.st1{fill-rule:evenodd;clip-rule:evenodd;fill:#FFFFFF;}
</style>
<path
   id="circle4126"
   class="st0"
   d="M 127.59961 6 A 121.6 121.6 0 0 0 6 127.59961 A 121.6 121.6 0 0 0 127.59961 249.19922 A 121.6 121.6 0 0 0 249.19922 127.59961 A 121.6 121.6 0 0 0 127.59961 6 z M 86.322266 55.84375 L 169.33594 55.84375 C 169.37994 55.84375 169.41841 55.865297 169.44141 55.904297 L 210.86523 127.46289 C 210.88623 127.49989 210.88623 127.54894 210.86523 127.58594 L 169.44141 199.06445 C 169.41941 199.10145 169.37994 199.125 169.33594 199.125 L 86.322266 199.125 C 86.278266 199.125 86.23975 199.10341 86.21875 199.06641 L 44.335938 127.58398 C 44.313938 127.54598 44.313938 127.49894 44.335938 127.46094 L 86.21875 55.902344 C 86.24075 55.865344 86.280266 55.84375 86.322266 55.84375 z M 127.59961 88.714844 A 38.885002 38.885002 0 0 0 88.714844 127.59961 A 38.885002 38.885002 0 0 0 127.59961 166.48438 A 38.885002 38.885002 0 0 0 166.48438 127.59961 A 38.885002 38.885002 0 0 0 127.59961 88.714844 z "
   style="fill:#ffffff;fill-opacity:1" />

</svg>
