<?xml version="1.0" encoding="UTF-8" standalone="no"?>
<!-- Generator: Adobe Illustrator 23.0.6, SVG Export Plug-In . SVG Version: 6.00 Build 0)  -->

<svg
   version="1.1"
   id="Capa_1"
   x="0px"
   y="0px"
   viewBox="0 0 255.1 255.1"
   style="enable-background:new 0 0 255.1 255.1;"
   xml:space="preserve"
   sodipodi:docname="water_icon.svg"
   inkscape:version="1.2.2 (732a01da63, 2022-12-09)"
   xmlns:inkscape="http://www.inkscape.org/namespaces/inkscape"
   xmlns:sodipodi="http://sodipodi.sourceforge.net/DTD/sodipodi-0.dtd"
   xmlns="http://www.w3.org/2000/svg"
   xmlns:svg="http://www.w3.org/2000/svg"><defs
   id="defs1032" /><sodipodi:namedview
   id="namedview1030"
   pagecolor="#cfcfcf"
   bordercolor="#a98989"
   borderopacity="1"
   inkscape:showpageshadow="0"
   inkscape:pageopacity="0"
   inkscape:pagecheckerboard="0"
   inkscape:deskcolor="#d1d1d1"
   showgrid="false"
   inkscape:zoom="4.0258721"
   inkscape:cx="127.55"
   inkscape:cy="127.42581"
   inkscape:window-width="2560"
   inkscape:window-height="1417"
   inkscape:window-x="-8"
   inkscape:window-y="-8"
   inkscape:window-maximized="1"
   inkscape:current-layer="Capa_1" />
<style
   type="text/css"
   id="style1023">
	.st0{fill:#3692DC;}
	.st1{fill:#FEFEFE;}
</style>
<path
   id="circle1025"
   class="st0"
   d="M 127.59961 6 A 121.6 121.6 0 0 0 6 127.59961 A 121.6 121.6 0 0 0 127.59961 249.19922 A 121.6 121.6 0 0 0 249.19922 127.59961 A 121.6 121.6 0 0 0 127.59961 6 z M 127.61523 36.837891 C 127.85761 36.838391 128.1007 37.040407 128.3457 37.441406 C 128.4757 37.654406 128.60733 37.867078 128.73633 38.080078 C 137.89632 53.199063 147.87693 67.799999 157.16992 82.833984 C 165.59691 96.465971 173.42093 110.41342 179.41992 125.31641 C 181.78692 131.1954 184.1778 137.0604 185.0918 143.40039 C 187.61379 160.87937 183.41049 176.54737 172.0625 190.06836 C 161.51851 202.63035 147.84426 209.3487 131.48828 210.5957 C 130.15928 210.6967 128.82981 210.78013 128.13281 210.82812 C 98.898842 210.49213 76.358994 190.74436 70.75 165.02539 C 68.214003 153.3964 69.317457 142.03271 73.564453 130.88672 C 80.066447 113.82374 88.636994 97.83386 98.333984 82.421875 C 106.81398 68.944888 115.44496 55.561799 124.00195 42.132812 C 124.98695 40.586814 125.92981 39.012311 126.88281 37.445312 C 127.13031 37.038313 127.37286 36.837391 127.61523 36.837891 z M 97.410156 143.6582 C 97.181922 143.67062 97.027109 143.92188 96.880859 144.10938 C 96.62486 144.43737 96.381969 144.77972 96.167969 145.13672 C 90.096975 155.28071 89.52874 165.69729 95.427734 175.98828 C 101.77273 187.05927 111.8235 192.11847 124.39648 192.48047 C 130.38248 192.50947 136.04046 191.22765 141.18945 188.22266 C 151.26244 182.34366 157.04725 173.72118 157.53125 161.86719 C 157.56725 160.98819 157.91551 159.48884 157.22852 159.33984 C 156.12452 159.10084 156.04875 160.63492 155.59375 161.41992 C 149.79176 171.44091 141.12111 177.01566 129.57812 177.47266 C 111.62414 178.18266 97.453516 163.51203 97.853516 146.37305 C 97.869516 145.70605 97.902672 145.04 97.888672 144.375 C 97.883672 144.154 97.816062 143.83233 97.664062 143.73633 C 97.569563 143.67658 97.486234 143.65406 97.410156 143.6582 z "
   style="fill:#ffffff;fill-opacity:1" />

</svg>
