<?xml version="1.0" encoding="UTF-8" standalone="no"?>
<!-- Created with Inkscape (http://www.inkscape.org/) -->

<svg
   width="118.38657mm"
   height="118.85786mm"
   viewBox="0 0 118.38657 118.85786"
   version="1.1"
   id="svg5"
   xml:space="preserve"
   inkscape:version="1.2.2 (732a01da63, 2022-12-09)"
   sodipodi:docname="pokeball_icon.svg"
   xmlns:inkscape="http://www.inkscape.org/namespaces/inkscape"
   xmlns:sodipodi="http://sodipodi.sourceforge.net/DTD/sodipodi-0.dtd"
   xmlns="http://www.w3.org/2000/svg"
   xmlns:svg="http://www.w3.org/2000/svg"><sodipodi:namedview
     id="namedview7"
     pagecolor="#ffffff"
     bordercolor="#999999"
     borderopacity="1"
     inkscape:showpageshadow="0"
     inkscape:pageopacity="0"
     inkscape:pagecheckerboard="0"
     inkscape:deskcolor="#d1d1d1"
     inkscape:document-units="mm"
     showgrid="false"
     inkscape:zoom="1.2938725"
     inkscape:cx="-40.962306"
     inkscape:cy="251.95682"
     inkscape:window-width="2560"
     inkscape:window-height="1417"
     inkscape:window-x="-8"
     inkscape:window-y="-8"
     inkscape:window-maximized="1"
     inkscape:current-layer="layer1" /><defs
     id="defs2" /><g
     inkscape:label="Layer 1"
     inkscape:groupmode="layer"
     id="layer1"
     transform="translate(-31.759663,-78.652111)"><path
       id="path908"
       style="fill:#ffffff;fill-opacity:1;stroke:none;stroke-width:0.238125"
       d="M 90.944165,78.652111 A 59.428917,59.428917 0 0 0 31.771032,132.84622 h 30.555241 a 29.124489,29.124489 0 0 1 28.617892,-23.89002 29.124489,29.124489 0 0 1 28.648895,23.89002 h 30.54439 A 59.428917,59.428917 0 0 0 90.944165,78.652111 Z m 0,40.261619 a 19.16732,19.16732 0 0 0 -19.167306,19.16731 19.16732,19.16732 0 0 0 19.167306,19.16731 19.16732,19.16732 0 0 0 19.167305,-19.16731 19.16732,19.16732 0 0 0 -19.167305,-19.16731 z m -59.184502,24.30343 a 59.428917,59.428917 0 0 0 59.184502,54.29281 59.428917,59.428917 0 0 0 59.202065,-54.29281 h -30.56867 a 29.124489,29.124489 0 0 1 -28.633395,23.9882 29.124489,29.124489 0 0 1 -28.633395,-23.9882 z"
       inkscape:export-filename="path908.png"
       inkscape:export-xdpi="96"
       inkscape:export-ydpi="96" /></g></svg>
